<svg
  xmlns="http://www.w3.org/2000/svg"
  viewBox="0 0 1024 1024"
  fill="currentColor"
>
  <!-- MESHA (Clean Micro-Cut: High-Legibility Simplified Lines for Small Sizes) -->
  <path d="M 294.500 188.176 C 213.145 196.375, 146.744 262.906, 128.524 354.478 C 121.393 390.313, 120.987 440.195, 127.549 474 C 152.529 602.683, 261.159 682.983, 331.189 624.532 C 396.962 569.636, 340.949 454.995, 242.359 442.727 L 232.500 441.500 232.169 438.016 C 230.750 423.070, 240.773 390.946, 252.172 373.903 C 283.482 327.095, 342.223 332.635, 368.459 384.872 C 373.044 394.001, 371.917 393.770, 347.866 380.664 C 322.018 366.580, 287.478 363.718, 263.502 373.676 C 252.891 378.083, 251.492 382.394, 255.481 398.397 C 264.511 434.626, 299.735 463.096, 340.875 467.418 C 366.990 470.161, 371.211 474.147, 372.349 497.138 C 372.737 504.982, 373.577 509.840, 375.546 515.638 C 380.136 529.149, 378.989 538.707, 366.038 594.907 C 350.564 662.058, 350.781 678.849, 367.558 712.500 C 385.019 747.523, 412.452 773.489, 469 808.518 C 478.625 814.481, 491 822.360, 496.500 826.029 C 502 829.697, 507.903 833.423, 509.618 834.307 L 512.736 835.915 523.618 828.792 C 529.603 824.875, 545.447 814.773, 558.827 806.343 C 625.224 764.509, 656.983 728.819, 667.248 684.500 C 672.297 662.703, 670.706 648.306, 656.365 586 C 645.095 537.034, 644.170 528.789, 648.583 516.621 C 650.593 511.078, 651.333 506.620, 651.922 496.500 C 653.204 474.475, 658.776 469.197, 682.500 467.535 C 723.539 464.660, 761.648 433.325, 769.500 396 C 772.705 380.765, 771.248 377.491, 759.266 372.990 C 733.579 363.341, 698.827 367.235, 672.850 382.674 C 664.823 387.444, 655.818 392, 654.417 392 C 649.932 392, 663.715 370.248, 674.710 359.975 C 709.442 327.524, 755.335 338.909, 778.926 385.829 C 786.167 400.231, 792.459 424.856, 791.802 436.222 L 791.500 441.454 780 443.069 C 683.649 456.606, 629.889 564.829, 690.971 622.291 C 733.509 662.307, 802.587 644.628, 849.923 581.608 C 924.990 481.671, 918.060 318.618, 835.359 238.962 C 747.720 154.549, 617.324 174.399, 546.057 283 C 542.628 288.225, 539.690 292.635, 539.527 292.801 C 539.365 292.966, 535.617 292.179, 531.199 291.051 C 520.202 288.243, 503.273 288.220, 493.243 291 C 489.273 292.100, 485.804 293, 485.533 293 C 485.263 293, 481.850 288.210, 477.950 282.355 C 432.579 214.252, 367.464 180.823, 294.500 188.176 M 292.802 204.994 C 277.089 207.010, 257 231.779, 257 249.136 L 257 252.062 269.106 251.781 L 281.213 251.500 283.604 245.135 C 289.390 229.732, 301.280 216.596, 315.845 209.513 C 320.330 207.333, 324 205.200, 324 204.774 C 324 203.823, 300.639 203.988, 292.802 204.994 M 700.003 204.750 C 700.005 205.162, 703.492 207.161, 707.753 209.191 C 722.594 216.263, 734.282 228.456, 739.682 242.500 C 743.528 252.503, 742.687 252, 755.563 252 C 768.669 252, 768.635 252.026, 766.533 243.824 C 761.513 224.227, 746.196 207.520, 731 205.065 C 723.556 203.863, 699.999 203.623, 700.003 204.750 M 334.678 209.480 C 315.202 216.226, 297.446 234.803, 295.319 250.657 L 294.786 254.630 302.307 256.815 C 306.443 258.017, 310.050 259, 310.321 259 C 310.593 259, 313.372 255.158, 316.496 250.463 C 325.613 236.761, 340.036 226.616, 356.064 222.632 C 367.163 219.873, 367.063 221.310, 355.750 227.176 C 344.575 232.971, 332.694 244.606, 327.622 254.725 C 322.817 264.309, 322.907 264.951, 329.590 268.789 C 336.850 272.959, 337.213 272.901, 341.011 266.983 C 350.260 252.569, 373.722 239, 389.394 239 C 394.184 239, 393.950 240.285, 388.750 242.536 C 374.176 248.844, 362.046 258.662, 354.041 270.630 C 347.929 279.769, 347.903 280.236, 353.250 285.073 C 358.462 289.788, 358.271 289.780, 363.239 285.527 C 365.470 283.617, 372.292 279.618, 378.398 276.639 C 384.504 273.660, 391.249 269.823, 393.388 268.112 C 397.872 264.522, 399 264.270, 399 266.856 C 399 270.337, 392.248 277.564, 382.620 284.389 C 367.084 295.401, 366.501 296.574, 372.856 304 L 375.852 307.500 385.431 302.666 C 401.190 294.713, 413.217 284.018, 420.636 271.358 C 427.303 259.982, 425.533 272.104, 418.495 286.022 C 412.805 297.275, 401.718 308.811, 390.764 314.877 C 384.989 318.076, 384.983 318.193, 390.192 325.289 C 395.099 331.973, 396.054 332.155, 404.709 328.061 C 420.026 320.815, 432.118 308.096, 439.449 291.519 C 442.615 284.360, 443.972 285.058, 442.738 293.212 C 439.872 312.145, 427.781 330.274, 412.200 339 C 401.851 344.795, 402.411 343.904, 405.407 349.817 C 408.616 356.150, 409.357 356.214, 419.634 351.041 C 434.265 343.677, 445.049 332.795, 452.626 317.750 C 457.718 307.639, 459.473 308.920, 456.448 320.540 C 451.536 339.413, 436.926 357.686, 420.559 365.429 C 414.127 368.472, 414.296 367.931, 417.394 375.545 C 420.276 382.629, 420.469 382.714, 427.117 379.854 C 450.773 369.678, 472.446 338.215, 473.287 312.830 C 473.954 292.688, 426.568 241.331, 390.081 222.652 C 363.155 208.868, 347.317 205.102, 334.678 209.480 M 667.500 209.442 C 623.830 220.815, 581.513 254.617, 555.603 298.823 L 550.724 307.146 551.274 314.823 C 553.067 339.868, 572.051 367.382, 595.507 378.929 C 603.480 382.854, 603.750 382.823, 605.983 377.750 C 610.010 368.600, 610.022 368.639, 601.834 364.405 C 586.286 356.366, 572.633 338.616, 567.968 320.377 C 564.618 307.278, 565.799 306.354, 571.565 317.562 C 579.381 332.756, 591.675 345.069, 605.694 351.743 C 614.296 355.839, 615.758 355.698, 618.706 350.492 C 621.998 344.680, 621.669 343.821, 614.949 340.694 C 599.704 333.600, 585.248 313.932, 581.892 295.719 C 579.799 284.356, 581.328 285.110, 589 299.222 C 596.421 312.874, 609.333 324.314, 623.576 329.858 C 629.443 332.141, 629.375 332.171, 634.279 325.248 C 639.152 318.369, 639.103 318.172, 631.396 313.500 C 618.182 305.491, 606.560 290.877, 601.445 275.839 C 597.884 265.370, 599.349 262.939, 603.969 271.648 C 609.873 282.777, 626.556 297.237, 641.803 304.440 L 648.026 307.380 652.013 303.487 C 657.914 297.726, 655.988 293.971, 642.500 284.933 C 633.211 278.709, 624 268.556, 624 264.540 C 624 263.091, 626.585 264.372, 630.821 267.920 C 633.394 270.077, 640.267 274.064, 646.094 276.782 C 651.921 279.500, 658.501 283.361, 660.715 285.362 C 665.632 289.804, 665.315 289.802, 670.647 285.433 C 676.126 280.943, 676.161 279.009, 670.903 271.416 C 662.572 259.384, 651.104 249.642, 638.596 243.971 C 627.452 238.918, 631.922 237.166, 646.004 241.068 C 660.873 245.189, 676.511 256.185, 683.712 267.584 C 687.025 272.828, 687.464 272.884, 694.425 268.955 C 701.397 265.021, 701.554 264.370, 697.491 256.291 C 691.118 243.617, 680.133 232.796, 667.247 226.500 C 660.458 223.183, 658.908 220.670, 664.250 221.641 C 682.001 224.869, 699.158 236.460, 708.594 251.599 C 713.842 260.020, 712.961 259.677, 722.173 256.879 C 730.569 254.329, 730.711 254.049, 727.753 245.900 C 721.579 228.891, 707.252 215.452, 688.369 208.955 C 681.198 206.488, 678.612 206.548, 667.500 209.442 M 260 212.720 C 225.082 225.804, 192.477 253.114, 172.485 286.024 C 168.251 292.994, 168.138 297.430, 172.002 305.003 C 174.756 310.403, 175.728 310.071, 181.266 301.844 C 186.023 294.776, 186.030 294.752, 185.380 288.403 C 184.105 275.959, 188.764 267.730, 190.996 278.483 C 192.553 285.981, 193.043 286.001, 200.908 278.871 L 207.807 272.619 207.781 266.059 C 207.749 257.875, 209.108 252.799, 212.953 246.735 C 215.848 242.170, 220.080 239.891, 218.496 243.750 C 217.103 247.143, 216.660 263.672, 217.941 264.463 C 218.603 264.873, 221.680 263.863, 224.820 262.207 C 227.944 260.558, 233.142 258.387, 236.372 257.383 C 242.846 255.371, 243.272 254.797, 245.036 245.706 C 246.582 237.738, 253.101 225.145, 259.048 218.638 C 265.053 212.068, 265.265 210.747, 260 212.720 M 760 212.508 C 760 212.907, 762.362 215.785, 765.250 218.905 C 772.180 226.392, 776.653 235.027, 779.397 246.215 L 781.641 255.362 788.070 257.534 C 791.607 258.729, 796.879 260.913, 799.787 262.389 C 807.064 266.081, 807.363 265.673, 806.755 252.858 C 806.472 246.886, 806.596 242, 807.031 242 C 810.876 242, 817 257.287, 817 266.884 C 817 272.519, 817.043 272.600, 823.277 278.779 C 831.590 287.019, 832.134 286.958, 833.533 277.628 C 835.068 267.393, 839.239 274.921, 838.911 287.333 C 838.697 295.416, 845.243 309.297, 849 308.727 C 851.114 308.407, 854.247 301.514, 854.749 296.081 C 855.780 284.928, 828.924 252.025, 804.516 234.535 C 788.434 223.012, 760 208.942, 760 212.508 M 271.367 269.487 C 268.662 276.535, 276.719 299.916, 285.169 309.540 C 289.551 314.531, 290.332 313.808, 287.493 307.388 C 283.155 297.580, 281.816 291.797, 281.150 280 L 280.500 268.500 276.241 268.192 C 273.059 267.962, 271.826 268.289, 271.367 269.487 M 743.888 268.195 C 743.826 268.363, 743.655 272.775, 743.509 278 C 743.195 289.178, 741.171 298.461, 737.082 307.480 C 733.529 315.316, 734.529 315.802, 739.991 308.892 C 747.687 299.156, 752.566 286.279, 753.211 274 L 753.500 268.500 748.750 268.195 C 746.138 268.028, 743.949 268.028, 743.888 268.195 M 246.674 271.203 C 241.927 272.483, 241.456 273.666, 242.876 280.737 C 245.532 293.960, 259.325 314.163, 269.893 320.307 C 273.922 322.649, 273.811 322, 269.110 315.707 C 261.356 305.326, 257.507 295.015, 255.598 279.500 C 254.363 269.463, 254.085 269.204, 246.674 271.203 M 768.730 278.737 C 767.856 292.224, 762.810 305.539, 754.300 316.816 C 748.868 324.014, 755.134 321.082, 763.539 312.493 C 773.006 302.817, 780.715 288.398, 782.389 277.231 C 783.111 272.417, 781.924 271.500, 773.475 270.342 L 769.311 269.771 768.730 278.737 M 302.016 274.990 C 300.088 276.182, 301.290 292.915, 303.884 301 C 306.359 308.714, 311.520 317.606, 310.558 312.500 C 309.102 304.774, 308.786 290.767, 309.934 284.929 C 310.931 279.860, 310.912 278.510, 309.827 277.548 C 307.541 275.518, 303.372 274.152, 302.016 274.990 M 716.250 276.220 C 713.686 277.457, 713.587 278.457, 715.081 288.086 C 715.877 293.214, 715.852 297.444, 714.987 304.100 C 713.644 314.435, 714.044 315.800, 716.818 310.347 C 721.401 301.337, 723.642 290.173, 723.159 278.750 C 722.986 274.658, 720.999 273.930, 716.250 276.220 M 219.884 284.273 C 212.199 289.533, 211.997 290.260, 215.916 298.634 C 221.991 311.617, 233.538 323.205, 247.345 330.174 C 255.336 334.208, 255.374 333.282, 247.565 324.848 C 237.737 314.232, 231.779 301.136, 230.174 286.625 C 229.317 278.866, 228.168 278.604, 219.884 284.273 M 794.124 287.524 C 791.762 303.403, 785.403 316.437, 774.884 326.956 C 767.987 333.853, 767.797 335.152, 774.153 331.949 C 788.732 324.603, 801.029 313.182, 807.388 301.082 C 812.049 292.211, 812.028 289.958, 807.250 286.286 C 796.386 277.936, 795.538 278.016, 794.124 287.524 M 329.870 292.750 C 328.377 296.547, 328.611 312.451, 330.247 318.433 C 332.406 326.326, 333.996 325.442, 334.026 316.333 C 334.044 310.807, 334.738 306.485, 336.383 301.658 L 338.714 294.816 336.117 292.408 C 332.747 289.283, 331.199 289.368, 329.870 292.750 M 688.528 292.222 L 685.826 294.546 688.059 301.023 C 689.651 305.640, 690.322 310.013, 690.396 316.248 C 690.460 321.581, 690.890 324.873, 691.500 324.679 C 693.151 324.153, 695.863 311.955, 695.874 305 C 695.897 291.085, 693.896 287.605, 688.528 292.222 M 199.004 303.186 C 192.040 311.521, 186 320.503, 186 322.526 C 186 325.113, 192.766 334.624, 197.688 338.957 C 208.233 348.239, 224.077 354.193, 214.933 345.437 C 208.463 339.243, 200.111 323.758, 201.412 320.370 C 201.745 319.502, 205.020 322.124, 210.713 327.814 C 219.531 336.629, 226.517 341.173, 236 344.264 C 247.837 348.121, 249.086 347.189, 239.779 341.445 C 226.684 333.362, 214.410 318.694, 208.888 304.528 C 205.442 295.689, 205.286 295.668, 199.004 303.186 M 818.305 298.238 C 817.777 298.932, 816.532 301.750, 815.539 304.500 C 811.039 316.963, 798.536 332.166, 785.853 340.598 C 775.429 347.528, 777.061 348.481, 790.697 343.427 C 799.782 340.059, 807.550 334.726, 815.901 326.124 L 823.302 318.500 822.687 322.414 C 821.769 328.262, 817.304 336.323, 811.325 342.931 C 805.542 349.321, 805.185 350, 807.610 350 C 813.515 350, 830.167 337.091, 836.013 327.980 L 839.199 323.015 836.585 318.555 C 830.255 307.753, 819.857 296.197, 818.305 298.238 M 159.323 310.750 C 131.089 373.992, 132.602 468.834, 162.807 529.135 C 169.236 541.970, 169.565 542.164, 172.431 534.817 C 180.131 515.077, 192.886 502.723, 213.500 495.037 C 223.184 491.426, 222.986 489.486, 212.938 489.542 C 203.374 489.595, 190.925 493.485, 180.765 499.596 C 169.653 506.280, 168.515 504.628, 178 495.581 C 187.354 486.660, 184.974 486.624, 164.782 495.387 C 146.830 503.177, 149.246 484.685, 168.722 465.232 C 179.822 454.145, 179.652 455.006, 170.750 454.976 C 161.186 454.943, 149 452.171, 149 450.028 C 149 449.628, 152.970 449.018, 157.823 448.673 C 172.594 447.625, 185.676 444.238, 196.872 438.565 C 204.021 434.942, 203.068 434.538, 188.174 434.876 C 173.133 435.218, 165.182 433.968, 155.849 429.795 C 145.388 425.117, 146.573 424.508, 166.250 424.443 C 184.394 424.384, 189.753 423.478, 204.250 418.021 C 212.095 415.068, 211.544 414.536, 200.373 414.276 C 187.861 413.985, 180.736 412.139, 168.464 406.011 C 156.477 400.026, 157.374 400.121, 156.577 404.750 C 155.252 412.450, 154.820 414, 154 414 C 152.295 414, 151.720 400.085, 152.834 385.785 C 154.498 364.418, 158.572 347.523, 166.663 328.429 L 170.084 320.357 167.043 313.929 C 165.370 310.393, 164.001 306.938, 164.001 306.250 C 163.999 303.234, 161.685 305.460, 159.323 310.750 M 860 306.625 C 860 307.519, 858.794 310.937, 857.320 314.222 L 854.640 320.193 856.471 324.847 C 868.541 355.534, 875.016 392.107, 871.602 410.309 C 870.646 415.402, 869.249 414.929, 868.477 409.250 C 867.160 399.555, 867.415 399.691, 859.499 404.459 C 848.685 410.970, 825.479 416.413, 817.293 414.359 C 811.103 412.805, 816.145 416.678, 823.559 419.171 C 837.684 423.921, 846.179 425.207, 861 424.837 C 876.457 424.451, 878.041 425.228, 870 429.252 C 861.341 433.586, 851.520 435.208, 836.249 434.829 C 828.962 434.648, 822.999 434.832, 822.999 435.237 C 823.002 438.972, 850.312 447.560, 865.601 448.634 C 871.775 449.068, 874.944 449.682, 874.714 450.400 C 874.125 452.235, 861.984 454.859, 853.750 454.932 C 844.418 455.014, 844.333 455.351, 852.082 461.566 C 865.526 472.349, 874.625 488.807, 870.443 494.777 C 868.181 498.007, 865.047 497.599, 852.212 492.405 C 838.327 486.785, 837.845 487.107, 846.585 496.164 C 854.145 503.998, 853.980 506.121, 846.199 501.128 C 834.755 493.784, 818.790 488.587, 809.500 489.180 C 801.985 489.661, 803.012 491.773, 812.576 495.508 C 831.484 502.892, 847.149 519.086, 852.956 537.250 C 854.744 542.842, 855.645 542.046, 861.450 529.750 C 891.504 466.083, 893.286 378.296, 865.850 313 C 862.774 305.678, 860 302.655, 860 306.625 M 353.539 317.182 C 351.895 322.717, 351.412 338, 352.881 338 C 353.366 338, 354.288 335.915, 354.930 333.366 C 356.087 328.768, 358.607 323.431, 361.520 319.407 C 362.900 317.501, 362.849 317.077, 360.945 314.657 C 357.591 310.394, 355.325 311.166, 353.539 317.182 M 663.481 314.670 C 661.972 316.972, 661.919 317.627, 663.091 319.420 C 666.320 324.358, 670 332.465, 670 334.641 C 670 336.161, 670.583 337, 671.641 337 C 673.073 337, 673.214 335.947, 672.751 328.750 C 671.837 314.538, 667.692 308.242, 663.481 314.670 M 489.644 318.083 C 489.412 318.862, 488.314 323.387, 487.203 328.137 C 477.193 370.958, 436.717 404.806, 399.304 401.643 C 391.348 400.970, 390.940 401.217, 389.589 407.519 C 388.450 412.837, 390.425 414.162, 397.727 412.975 C 412.108 410.639, 430.140 418.702, 441.479 432.540 C 446.511 438.680, 445.506 439.005, 436.286 434.218 C 405.116 418.032, 382 426.537, 382 454.192 C 382 468.498, 384.568 471.622, 394.582 469.500 C 398.648 468.638, 403.458 468.286, 406.250 468.646 C 413.822 469.621, 410.627 463.414, 399.904 456.318 C 394.625 452.825, 394.893 451.577, 400.750 452.375 C 412.422 453.963, 422.055 461.846, 431.029 477.155 C 440.511 493.328, 445.849 497.060, 449.474 490.050 C 452.757 483.702, 449.851 464.336, 444.461 456.641 C 442.632 454.030, 442.611 453, 444.385 453 C 446.936 453, 457.694 465.659, 460.887 472.418 C 464.677 480.437, 463.618 480.508, 473.085 471.602 C 490.425 455.290, 500.209 455.284, 510.741 471.579 C 511.941 473.435, 512.043 473.416, 513.741 471.024 C 525.098 455.032, 534.143 455.181, 551.072 471.639 C 560.253 480.565, 559.884 480.541, 563.419 472.426 C 566.986 464.239, 578.564 451.231, 580.532 453.199 C 580.731 453.398, 579.305 457.515, 577.364 462.349 C 571.096 477.962, 571.979 491.981, 579.284 492.820 C 582.970 493.243, 586.414 489.511, 592.668 478.312 C 601.194 463.046, 611.684 454.183, 623.250 452.475 C 628.923 451.637, 629.438 452.879, 624.750 456.089 C 614.078 463.395, 610.829 469.594, 618.250 468.490 C 620.756 468.118, 625.544 468.495, 629.920 469.411 C 638.782 471.265, 639.378 470.949, 641.633 463.191 C 645.646 449.386, 639.299 433.712, 627.354 427.929 C 618.346 423.569, 603.488 425.903, 588.173 434.086 C 577.229 439.933, 576.814 438.398, 586.750 428.825 C 601.110 414.990, 611.461 411.381, 631.500 413.224 C 634.338 413.485, 634.516 413.284, 634.794 409.500 C 635.297 402.671, 634.172 402.055, 620.500 401.666 C 580.196 400.522, 541.880 364.505, 535.484 321.750 C 534.029 312.025, 531 318.942, 531 331.989 C 531 349.590, 538.368 367.654, 551.262 381.662 C 555.881 386.680, 554.886 387.714, 548.036 385.014 C 533.453 379.266, 529.410 383.236, 524.971 407.657 C 518.156 445.161, 505.852 444.535, 499.013 406.336 C 494.809 382.858, 490.647 379.001, 476.160 385.161 C 469.629 387.937, 469.455 386.570, 475.397 379.193 C 488.676 362.708, 495.714 341.193, 493.098 325.078 C 492.044 318.585, 490.453 315.363, 489.644 318.083 M 175.232 340.750 C 173 345.563, 169.903 353.193, 168.350 357.708 L 165.526 365.915 169.013 369.522 C 175.291 376.014, 193.663 383, 204.458 383 C 207.700 383, 207.747 381.234, 204.537 380.014 C 195.755 376.675, 181.366 364.475, 177.584 357.163 C 174.887 351.946, 176.711 351.695, 183.313 356.372 C 195.407 364.942, 207.410 369, 220.660 369 C 229.555 369, 229.983 367.917, 222.041 365.512 C 208.246 361.336, 191.184 348.430, 184.500 337.117 C 180.503 330.353, 179.954 330.568, 175.232 340.750 M 840.803 335.250 C 834.902 347.488, 815.579 362.307, 800.607 366.077 C 793.843 367.780, 794.984 369, 803.340 369 C 816.194 369, 830.257 364.303, 841.134 356.377 C 849.128 350.551, 850.277 352.494, 844.012 361.243 C 839.575 367.439, 830.842 374.463, 822.496 378.546 C 816.246 381.604, 815.535 383.008, 820.250 382.983 C 830.627 382.927, 847.835 376.477, 855.444 369.791 L 859.388 366.325 856.029 357.413 C 847.164 333.894, 843.811 329.013, 840.803 335.250 M 375.195 339.265 C 372.157 342.926, 368.612 354, 370.479 354 C 373.164 354, 381.910 342.497, 380.660 340.610 C 378.943 338.021, 376.689 337.465, 375.195 339.265 M 644.035 339.934 C 642.360 343.064, 642.928 344.238, 648.616 349.409 C 654.677 354.917, 655.594 354.908, 654.087 349.351 C 651.797 340.904, 646.282 335.737, 644.035 339.934 M 856 378.228 C 845.484 387.715, 833.480 393.291, 819.104 395.366 C 809.132 396.806, 807.951 398.179, 815.226 399.876 C 832.060 403.805, 855.746 401.042, 863.946 394.193 L 865.973 392.500 863.879 384 C 861.239 373.283, 861.373 373.381, 856 378.228 M 162.511 376.250 C 161.289 379.835, 159 390.069, 159 391.949 C 159 399.215, 189.950 404.217, 208.802 399.998 C 214.507 398.722, 215.380 396.691, 210.423 396.226 C 196.078 394.880, 179.626 388.166, 170.715 380.022 C 165.096 374.887, 163.263 374.044, 162.511 376.250 M 279.333 384.500 C 266.865 387.210, 266.446 389.325, 274.969 406.500 C 289.380 435.540, 317.053 453, 348.665 453 C 355.575 453, 354.488 451.483, 344.727 447.505 C 332.191 442.395, 322.172 436.063, 316.082 429.400 C 308.603 421.216, 309.994 419.308, 321.499 421.975 C 336.373 425.423, 311.505 406.923, 291.783 399.868 C 281.440 396.168, 281.115 395.534, 288.750 393.947 C 308.980 389.742, 332.473 399.774, 348.999 419.674 C 365.012 438.956, 366.180 439.550, 370.725 430.746 C 376.223 420.096, 373.760 409.881, 364.914 406.640 C 362.391 405.716, 355.191 401.997, 348.914 398.376 C 324.136 384.084, 301.765 379.623, 279.333 384.500 M 708 384.495 C 696.662 387.032, 686.874 391.370, 671.487 400.677 C 667.079 403.343, 661.454 406.162, 658.987 406.942 C 652.535 408.981, 652.343 409.255, 651.596 417.500 C 650.975 424.360, 651.151 425.483, 653.709 430.981 C 657.351 438.807, 658.409 438.666, 666.676 429.250 C 691.072 401.465, 704.002 393.614, 725.500 393.536 C 741.926 393.477, 745.275 395.565, 734.473 399.132 C 723.304 402.821, 710.768 409.705, 704 415.865 C 696.846 422.376, 696.614 423.340, 702.528 421.969 C 708.485 420.588, 714 420.758, 714 422.323 C 714 427.289, 696.800 440.122, 681.655 446.455 C 668.050 452.145, 667.820 453.515, 680.614 452.650 C 708.440 450.769, 730.375 437.609, 745.920 413.469 C 751.237 405.211, 757.044 389.608, 755.387 388.028 C 751.047 383.888, 720.793 381.632, 708 384.495 M 453.750 404.658 C 448.477 406.846, 448.923 409.023, 455.250 411.988 C 463.534 415.869, 470.787 423.892, 476.280 435.250 C 481.530 446.108, 482.585 446.941, 483.239 440.750 C 485.675 417.725, 469.620 398.076, 453.750 404.658 M 558.791 403.937 C 548.207 407.328, 540.583 421.732, 541.204 437.163 C 541.583 446.567, 542.429 446.279, 548.212 434.776 C 554.322 422.621, 559.111 417.240, 567.955 412.593 C 571.830 410.557, 575 408.517, 575 408.060 C 575 405.022, 564.078 402.244, 558.791 403.937 M 213 459.491 C 202.121 461.931, 189 467.735, 189 470.107 C 189 470.638, 190.787 470.703, 193.250 470.262 C 203.613 468.404, 223.003 469.463, 233.393 472.454 L 243.286 475.302 247.603 472.944 C 252.642 470.191, 253.887 470.829, 252.180 475.288 C 249.774 481.573, 256.898 484.876, 264.500 481 C 271.123 477.623, 273.493 480.256, 269 486 C 266.419 489.300, 266.462 489.539, 270.250 492.985 C 275.212 497.499, 281.482 496.455, 287.437 490.123 C 291.807 485.476, 293.379 485.949, 292.729 491.716 C 292.200 496.406, 289.134 500.336, 283.470 503.584 C 281.674 504.614, 281.748 504.932, 284.948 509.919 C 293.362 523.032, 312.439 517.671, 314.645 501.574 L 315.296 496.822 308.898 490.811 C 283.288 466.751, 241.489 453.100, 213 459.491 M 782.500 458.627 C 750.923 463.393, 710 487.280, 710 500.946 C 710 516.126, 731.242 523.454, 738.947 510.932 C 742.141 505.741, 742.797 503, 740.844 503 C 738.448 503, 733.118 497.888, 732.009 494.527 C 729.716 487.580, 732.914 484.687, 736.910 490.092 C 741.322 496.059, 748.379 497.474, 753.656 493.449 C 757.513 490.507, 757.790 488.820, 755 485.273 C 750.400 479.425, 752.638 477.830, 760.732 481.185 C 765.819 483.293, 766.128 483.309, 769.602 481.653 C 773.367 479.857, 773.305 480.147, 771.391 473.250 C 770.578 470.321, 772.666 470.280, 777.496 473.130 L 781.106 475.260 788.303 473.164 C 802.647 468.987, 826.172 467.624, 833.386 470.553 C 838.286 472.542, 833.831 468.201, 827.964 465.270 C 816.724 459.654, 795.876 456.608, 782.500 458.627 M 398.387 483.434 C 393.678 495.705, 419.648 509.087, 426.537 497.940 C 427.766 495.951, 423.275 492.783, 420.973 494.015 C 415.076 497.171, 407.954 494.067, 404.535 486.851 C 402.403 482.352, 399.435 480.702, 398.387 483.434 M 620.382 486.004 C 617.405 493.443, 608.573 497.546, 603.054 494.054 C 601.070 492.799, 598 494.588, 598 497 C 598 501.189, 608.349 503.284, 615.517 500.547 C 620.751 498.548, 624.331 494.321, 625.953 488.227 C 627.922 480.824, 623.207 478.942, 620.382 486.004 M 485.410 484.909 C 473.706 490.203, 458.420 512.954, 450.544 536.800 C 447.134 547.125, 446.296 546.861, 443.068 534.442 C 438.130 515.445, 434.538 512, 419.672 512 C 406.530 512, 398.966 508.153, 392.940 498.403 C 390.187 493.949, 389 494.102, 389 498.911 C 389 510.028, 395.641 522.026, 407.071 531.559 C 424.567 546.152, 436.461 569.220, 440.550 596.486 C 441.541 603.093, 442.354 602.094, 444.407 591.750 C 448.387 571.687, 459.771 542.431, 467.984 531.157 C 472.277 525.263, 472.501 526.142, 469.626 537.631 C 464.213 559.271, 459.587 587.404, 458.795 603.500 C 458.454 610.429, 458.320 610.376, 467.555 606.909 C 477.962 603.002, 478.104 604.725, 468.196 614.705 C 451.605 631.416, 443.763 654.481, 446.717 677.880 C 449.798 702.290, 472.571 716.149, 497.228 708.620 C 508.185 705.274, 511.107 693.439, 503.127 684.728 C 500.997 682.402, 498.079 678.165, 496.642 675.312 C 493.459 668.992, 489.340 665.755, 481.709 663.575 C 468.105 659.688, 462.445 647.976, 468.988 637.250 C 471.661 632.868, 473.756 633.057, 474.518 637.750 C 475.758 645.385, 476.578 646.330, 481.389 645.670 C 487.052 644.894, 491.718 646.272, 498.198 650.635 C 510.401 658.851, 513.823 659.089, 523.591 652.401 C 531.974 646.662, 537.015 644.819, 542.104 645.633 C 547.128 646.436, 548.726 645.054, 549.578 639.168 C 550.620 631.981, 552.875 631.991, 556.602 639.198 C 562.005 649.646, 555.714 659.385, 540.307 664.424 C 533.291 666.719, 530.159 669.403, 527.465 675.428 C 526.217 678.217, 523.577 682.051, 521.598 683.946 C 517.134 688.222, 516.128 701.128, 519.961 704.961 C 526.040 711.040, 545.521 712.340, 556 707.365 C 572.843 699.369, 577.518 691.011, 577.458 669 C 577.393 645.026, 571.189 629.441, 555.572 614.025 C 545.449 604.032, 546.156 602.440, 558.472 607.502 C 562.260 609.060, 564.792 609.608, 565.397 609.003 C 567.589 606.811, 559.483 552.969, 554.495 536.591 C 551.175 525.688, 553.018 525.363, 559.258 535.750 C 567.201 548.973, 574.141 567.130, 578.963 587.304 C 582.096 600.410, 582.704 600.384, 586.118 587 C 593.707 557.246, 599.855 546.745, 620.236 528.725 C 629.698 520.359, 633.934 512.686, 634.758 502.421 C 635.391 494.541, 634.824 494.459, 629.187 501.622 C 622.921 509.584, 617.146 512, 604.380 512 C 589.491 512, 585.892 515.780, 580.845 536.715 C 578.223 547.588, 577.457 547.791, 574.308 538.441 C 562.967 504.765, 542.124 478.747, 531.069 484.465 C 523.962 488.140, 517.907 510.479, 513.508 549.250 C 512.527 557.905, 511.484 556.233, 510.078 543.750 C 504.860 497.418, 497.351 479.507, 485.410 484.909 M 778.938 495.198 C 756.031 508.186, 740.192 534.225, 745.965 549.407 C 751.218 563.225, 771.488 541.148, 781.478 510.728 C 787.824 491.403, 787.638 490.265, 778.938 495.198 M 238 493.770 C 238 495.248, 242.064 509.547, 244.176 515.500 C 255.494 547.402, 279 565.652, 279 542.538 C 279 526.525, 266.075 507.511, 247.867 496.740 C 241.906 493.213, 238 492.038, 238 493.770 M 214 508.600 C 194.621 513.772, 180.204 527.601, 175.546 545.487 C 173.851 551.994, 174.026 552.496, 181.756 563.250 C 186.197 569.428, 186.354 569.357, 188.320 560.295 C 192.230 542.280, 203.763 526.529, 218.810 518.653 C 225.977 514.903, 226.108 514.765, 225.443 511.664 C 224.281 506.243, 223.557 506.049, 214 508.600 M 800.203 508.256 C 796.474 512.749, 797.464 514.620, 805.895 519.006 C 821.851 527.308, 833.704 544.507, 836.551 563.491 C 837.373 568.970, 838 569.061, 841.772 564.250 C 850.648 552.927, 851.123 551.030, 847.497 541.395 C 841.033 524.224, 826.564 511.969, 808.201 508.113 C 801.593 506.725, 801.471 506.727, 800.203 508.256 M 319.890 514.708 C 315.446 522.191, 309.505 525.460, 300.310 525.484 C 288.810 525.513, 294.017 534.540, 306.704 536.569 C 316.745 538.174, 324.738 534.354, 329.059 525.885 C 331.656 520.793, 331.522 519.215, 328.022 513.696 C 324.264 507.770, 323.991 507.804, 319.890 514.708 M 697.763 511.250 C 692.459 519.387, 692.721 524.522, 698.788 531.355 C 705.634 539.064, 726.799 537.998, 729.901 529.788 C 731.121 526.557, 730.826 526.366, 723.560 525.688 C 713.516 524.750, 705.281 519.412, 702.941 512.322 C 701.665 508.455, 699.833 508.075, 697.763 511.250 M 222.813 529.926 C 205.550 536.676, 194.092 554.259, 194.017 574.115 C 193.999 579.092, 195.215 581.226, 202.330 588.707 C 207.035 593.653, 207.659 593.505, 208.573 587.227 C 209.947 577.788, 215.529 566.811, 217.408 569.852 C 217.742 570.392, 217.580 573.909, 217.047 577.667 C 214.861 593.096, 221.407 611, 229.234 611 C 229.508 611, 229.959 606.612, 230.235 601.250 C 231.093 584.579, 235.359 579.969, 236.250 594.750 C 237.174 610.088, 241.964 618.928, 251.272 622.472 C 256.510 624.466, 258.206 623.991, 255.707 621.229 C 247.155 611.779, 245.258 590.707, 251.600 575.612 C 256.972 562.826, 256.749 564.027, 254.139 561.913 C 252.841 560.861, 251.153 560, 250.389 560 C 247.993 560, 237.636 571.243, 234.500 577.249 C 231.022 583.910, 229.374 584.138, 229.801 577.899 C 230.295 570.681, 232.929 564.200, 238.194 557.243 C 243.249 550.565, 243.641 547.228, 239.556 545.660 C 237.797 544.985, 229.235 549.422, 222.520 554.488 C 215.599 559.710, 214.535 559.989, 215.449 556.346 C 216.782 551.037, 229.832 536, 233.108 536 C 234.528 536, 234.143 532.649, 232.443 530.223 C 230.579 527.561, 228.988 527.512, 222.813 529.926 M 791.439 531.118 L 789.714 534.453 793.607 537.477 C 800.152 542.559, 804.899 547.867, 807.510 553.019 C 811.410 560.715, 810.430 560.996, 801.942 554.616 C 790.807 546.245, 785.076 544.483, 782.353 548.591 C 781.102 550.478, 781.274 551.066, 784.103 554.591 C 791.161 563.388, 795 572.413, 795 580.210 C 795 584.403, 793.490 583.600, 790.042 577.573 C 783.017 565.296, 774.986 558.653, 770.623 561.512 C 767.312 563.681, 767.339 564.419, 770.994 571.610 C 778.609 586.593, 779.038 601.816, 772.222 615.157 L 768.089 623.247 771.771 622.650 C 780.797 621.185, 786.842 610.913, 787.860 595.310 C 788.865 579.908, 793.091 584.121, 793.818 601.250 C 794.261 611.678, 794.584 612.145, 799.118 608.916 C 805.574 604.319, 809.275 589.912, 807.207 577.432 C 805.944 569.807, 806.380 568.129, 809.007 570.506 C 811.595 572.848, 814.761 580.715, 815.570 586.813 C 816.515 593.937, 816.910 593.920, 823.892 586.456 L 830 579.927 830 573.069 C 830 552.266, 814.775 532.105, 796.269 528.404 C 793.495 527.849, 792.980 528.139, 791.439 531.118 M 333.107 537.016 C 326.542 545.186, 315.494 547.903, 304.282 544.106 C 295.992 541.299, 295.999 541.296, 296.009 546.750 C 296.050 567.224, 323.796 579.117, 339.154 565.242 C 346.397 558.699, 344.411 551.234, 336.590 555.606 C 331.328 558.547, 322.035 559.787, 317.750 558.119 C 313.612 556.509, 314.410 555.264, 320.375 554.026 C 330.326 551.960, 338.987 544.447, 338.996 537.872 C 339.003 532.943, 336.655 532.601, 333.107 537.016 M 685.950 535.093 C 682.504 541.533, 692.394 551.390, 705.019 554.097 C 710.751 555.327, 711.104 556.955, 705.932 558.302 C 700.748 559.653, 693.612 558.602, 687.917 555.647 C 676.958 549.961, 678.416 562.057, 689.471 568.536 C 701.860 575.796, 717.677 570.209, 726.048 555.615 C 731.892 545.424, 729.921 540.990, 720.903 544.044 C 709.433 547.928, 696.638 544.855, 691.139 536.895 C 688.077 532.463, 687.470 532.253, 685.950 535.093 M 404.271 555.616 C 404.586 557.202, 405.582 564.800, 406.483 572.500 C 410.084 603.286, 412.774 611.573, 425.570 631.309 C 432.645 642.222, 433.666 641.762, 432.087 628.375 C 429.081 602.892, 421.700 579.088, 411.622 562.382 C 406.007 553.074, 403.261 550.547, 404.271 555.616 M 615.870 557.250 C 605.514 571.256, 594.840 604.019, 592.494 629 C 592.158 632.575, 591.676 636.513, 591.423 637.750 C 590.437 642.563, 593.714 639.553, 599.647 630.195 C 611.846 610.955, 613.888 604.812, 617.497 576.500 C 618.899 565.500, 620.291 555.712, 620.590 554.750 C 621.572 551.593, 619.074 552.916, 615.870 557.250 M 290.294 568.968 C 293.006 601.319, 334.650 610.908, 340.732 580.582 C 341.248 578.010, 341.091 577.756, 339.409 578.438 C 321.430 585.725, 304.959 580.985, 295.346 565.756 C 291.400 559.505, 289.597 560.651, 290.294 568.968 M 729.583 564.839 C 722.507 578.523, 700.905 586.204, 688.135 579.576 C 683.551 577.197, 682.788 578.521, 685.052 584.920 C 692.027 604.625, 721.823 602.479, 731.056 581.606 C 733.085 577.020, 735.387 564.435, 734.468 562.949 C 733.344 561.129, 731.041 562.020, 729.583 564.839 M 262.595 573.250 C 251.526 592.146, 255.488 612.295, 272.585 624.059 C 277.201 627.235, 283.339 627.962, 288.610 625.958 L 291.349 624.917 286.328 621.535 C 273.039 612.585, 266.154 595.569, 268.838 578.304 C 269.478 574.184, 269.750 570.405, 269.442 569.907 C 268.072 567.689, 264.963 569.207, 262.595 573.250 M 278.828 571.669 C 267.368 599.061, 301.847 632.627, 320.386 612.127 C 322.576 609.706, 322.216 609.489, 314.500 608.583 C 299.019 606.766, 286.940 594.193, 283.673 576.496 C 282.281 568.952, 280.646 567.323, 278.828 571.669 M 742.017 571.456 C 741.457 572.927, 740.995 574.888, 740.989 575.815 C 740.893 590.799, 725.477 606.622, 708.915 608.736 C 701.603 609.670, 701.419 610.555, 707.643 614.859 C 722.088 624.847, 744.943 610.314, 747.545 589.485 C 748.864 578.933, 744.538 564.826, 742.017 571.456 M 754.623 569.800 C 754.312 570.304, 754.495 572.239, 755.029 574.101 C 759.937 591.213, 751.483 613.001, 736 623.144 C 732.641 625.344, 733.904 626.293, 740.861 626.796 C 757.292 627.985, 771.284 606.137, 767.075 585.863 C 764.987 575.802, 757.157 565.701, 754.623 569.800 M 385.555 584.750 C 384.042 591.763, 381.756 601.775, 380.475 607 C 365.776 666.942, 368.766 689.851, 396.070 726.500 C 407.534 741.888, 409.456 742.563, 405.574 729.836 C 400.255 712.397, 398.914 695.205, 401.493 677.500 C 404.936 653.865, 407.015 654.013, 408.499 678 C 411.831 731.845, 440.214 773.345, 495.719 805.528 C 506.717 811.905, 495.243 794.378, 474.098 772.500 C 457.946 755.788, 451.952 744.460, 447.461 722.159 C 446.029 715.047, 445.077 712.886, 440.994 707.492 C 435.506 700.241, 432.500 692.965, 430.991 683.274 C 428.848 669.518, 424.689 660.276, 411.690 640.390 C 400.832 623.780, 397.401 616.856, 395.010 606.734 C 393.478 600.243, 390 576.676, 390 572.780 C 390 568.468, 387.776 574.457, 385.555 584.750 M 634.562 575.083 C 634.286 575.862, 633.354 582.125, 632.492 589 C 629.594 612.113, 626.989 618.800, 612.142 641.231 C 598.718 661.513, 597.280 664.708, 593.526 682.604 C 590.856 695.334, 587.613 702.881, 582.132 709.124 C 579.215 712.447, 578.123 714.703, 577.594 718.500 C 574.365 741.692, 566.286 756.562, 544.999 778.500 C 532.227 791.662, 525 801.411, 525 805.479 C 525 807.806, 525.959 807.365, 539.218 798.950 C 590.394 766.469, 613.201 728.523, 616.574 670.250 C 617.324 657.295, 618.194 655.306, 620.073 662.250 C 625.708 683.081, 625.087 709.958, 618.488 730.848 C 615.286 740.984, 615.828 741.895, 621.298 735.572 C 643.450 709.970, 654.047 683.458, 652.705 657 C 652.098 645.030, 650.197 634.610, 642.309 600 C 636.881 576.185, 635.616 572.116, 634.562 575.083 M 502.500 721.049 C 491.631 723.950, 483.584 724.400, 475 722.586 C 465.589 720.598, 466 720.565, 466 723.304 C 466 729.084, 474.184 738.045, 483.979 742.989 C 510.719 756.488, 551.180 746.871, 557.752 725.456 C 559.270 720.509, 559.107 720.409, 552.256 722.089 C 544.349 724.027, 532.282 723.650, 521.261 721.121 C 510.493 718.649, 511.476 718.653, 502.500 721.049" fill="currentColor" fill-rule="evenodd" />
</svg>
