<svg
  xmlns="http://www.w3.org/2000/svg"
  viewBox="0 0 1024 1024"
  fill="currentColor"
>
  <!-- VRISCHIKA (Ultra-Compact Micro Cut) -->
  <path d="M 575.500 44.497 C 542.597 52.945, 509.671 75.252, 493.574 100 C 490.891 104.125, 485.309 110.647, 481.169 114.494 C 458.377 135.673, 447.307 171.521, 452.886 206.087 L 454.271 214.673 451.155 222.755 C 442.938 244.062, 445.431 272.929, 457.721 298.803 C 461.929 307.660, 461.809 308.276, 453.979 318 C 443.651 330.828, 434.601 351.364, 430.976 370.201 C 430.201 374.226, 428.421 378.048, 424.922 383.201 C 415.776 396.670, 411.393 412.041, 410.009 435.500 C 409.387 446.032, 408.809 449.354, 406.962 453 C 405.708 455.475, 403.512 461.100, 402.082 465.500 C 399.613 473.091, 399.331 473.500, 396.546 473.500 C 389.588 473.500, 385.846 458.208, 378.082 398.049 C 376.158 383.134, 374.338 380.998, 355.500 371.537 C 328.830 358.143, 288.687 353.011, 274.068 361.126 C 254.260 372.121, 246.913 378.472, 217.392 410.123 L 210.284 417.743 198.392 418.219 C 186.020 418.713, 161.661 424.210, 156.313 427.715 C 141.138 437.658, 191.270 454.716, 212.775 446.926 C 215.924 445.786, 221.366 444.031, 224.869 443.028 C 235.649 439.939, 259.111 422.462, 273.759 406.610 C 278.396 401.592, 280.060 401.179, 286.535 403.436 C 293.479 405.856, 308.526 406.996, 320 405.971 C 334.861 404.643, 335.201 404.915, 336.349 419 C 338.047 439.833, 347.076 467.178, 359.455 488.976 C 362.430 494.214, 365.174 500.300, 365.553 502.500 C 366.649 508.870, 370.736 515.386, 378.130 522.556 C 385.227 529.438, 386.212 531.321, 383.299 532.439 C 379.021 534.080, 363.638 514.347, 345.072 483.403 C 325.651 451.033, 326.429 451.734, 307.234 449.352 C 253.630 442.701, 223.776 455.442, 179.773 503.750 C 174.248 509.816, 173.934 510, 169.106 510 C 152.278 510, 119 522.329, 119 528.564 C 119 537.589, 158.849 545.529, 175 539.721 C 177.475 538.832, 183.202 536.779, 187.726 535.160 C 198.705 531.231, 211.316 522.689, 223.500 510.927 C 236.001 498.860, 236.681 498.484, 243.195 500.047 C 252.511 502.282, 269.227 499.067, 284.751 492.054 C 295.529 487.186, 295.940 487.339, 302.930 498.845 C 315.438 519.433, 337.626 545.368, 353.613 558.090 C 357.153 560.907, 361.441 565.301, 363.142 567.856 C 366.851 573.427, 371.469 577.856, 377.552 581.674 C 383.078 585.144, 383.492 588.586, 378.355 588.364 C 373.457 588.152, 358.192 575.443, 327.170 545.750 C 307.136 526.574, 306.321 526.253, 284 528.738 C 234.937 534.201, 199.233 557.293, 174.369 599.642 C 171.761 604.084, 169.109 605.526, 162 606.367 C 153.465 607.377, 121.175 622.937, 118.937 627.117 C 114.681 635.071, 120.866 638.204, 141.947 638.772 C 175.104 639.666, 199.473 627.345, 220 599.310 C 225.154 592.271, 228.379 590, 233.221 590 C 244.434 590, 260.762 583.741, 274.695 574.102 C 285.941 566.321, 285.382 566.229, 297.354 577.835 C 313.518 593.504, 333.178 607.366, 354.908 618.415 C 361.933 621.988, 368.289 625.643, 369.033 626.540 C 371.534 629.553, 379.120 634.194, 384.821 636.197 C 394.347 639.545, 394.811 639.925, 392.079 642.137 C 385.748 647.263, 378.625 644.171, 337.372 618.392 C 310.843 601.814, 307.107 600.425, 298.287 603.869 C 295.654 604.898, 290.474 606.259, 286.775 606.894 C 263.957 610.815, 231.758 628.092, 223.237 640.987 C 221.233 644.019, 217.686 649.101, 215.355 652.280 C 210.471 658.942, 199.625 679.848, 195 691.516 C 191.289 700.880, 190 702.523, 185.129 704.099 C 173.761 707.777, 148.653 725.139, 144.106 732.466 C 134.601 747.780, 185.475 743.325, 204.291 727.196 C 207.304 724.613, 212.264 720.615, 215.313 718.310 C 222.507 712.874, 230.255 701.842, 238.429 685.397 C 245.903 670.358, 245.558 670.747, 253.500 668.467 C 264.411 665.334, 276.263 658.177, 287.724 647.797 C 294.515 641.647, 295.394 641.724, 307.079 649.504 C 325.599 661.833, 347.415 672.050, 367 677.567 C 372.225 679.039, 379.650 681.944, 383.500 684.023 C 392.466 688.865, 400.119 690.433, 410.790 689.617 C 425.717 688.474, 431.767 701.979, 419.214 708.422 C 416.621 709.753, 412.950 712.003, 411.056 713.421 C 406.031 717.184, 404.276 716.738, 393.629 708.992 C 357.699 682.853, 312.425 666.427, 294.007 672.848 C 259.352 684.928, 213.731 765.259, 225.529 793.425 C 227.404 797.902, 227.162 802.404, 224.529 812 C 218.942 832.366, 227.281 857.106, 246.956 878.539 C 250.005 881.860, 255.340 889.301, 258.810 895.073 C 293.995 953.598, 369.483 990.456, 432.998 980.125 C 451.347 977.140, 450.679 968.469, 431.724 963.570 C 403.379 956.245, 372.913 936.421, 356.658 914.726 C 349.523 905.205, 355.272 903.040, 378.500 906.502 C 399.384 909.615, 412.398 915.903, 427.650 930.250 C 442.492 944.212, 448.682 940.880, 444.534 921.160 C 438.650 893.188, 424.023 877.532, 386 858.508 C 362.130 846.564, 360.393 844.591, 354.874 823.162 C 347.358 793.980, 332.592 775.388, 310.056 766.734 C 298.462 762.281, 298.386 762.148, 301.453 751.564 C 302.854 746.731, 304 741.771, 304 740.543 C 304 736.709, 306.872 735.280, 316.066 734.540 L 324.632 733.851 329.566 737.681 C 339.659 745.515, 347.210 749.943, 357.493 754.061 C 367.496 758.066, 381.372 760.970, 390.594 760.987 C 397.263 760.999, 398.064 761.253, 403.979 765.225 C 416.090 773.357, 432.014 770.930, 451 758.059 C 460.104 751.887, 462.319 754.753, 462.426 772.842 C 462.537 791.843, 469.219 803.009, 485.123 810.769 C 498.287 817.192, 503.263 813.208, 497.510 800.849 C 492.753 790.632, 494.739 787.107, 504.119 789.119 C 509.074 790.182, 520.127 789.855, 524.500 788.516 C 530.260 786.753, 531.810 793.494, 527.570 801.862 C 521.866 813.117, 526.981 817.097, 539.500 811.147 C 556.264 803.178, 564.876 788.453, 563.422 770.244 C 562.292 756.093, 565.888 752.075, 574.426 757.949 C 594.265 771.598, 610.948 773.607, 623.219 763.823 C 625.497 762.008, 627.882 761.524, 637.890 760.849 C 658.791 759.440, 674.965 753.071, 695.474 738.172 L 701.449 733.832 709.474 734.509 C 719.409 735.348, 720.157 736.035, 723.057 747 C 727.273 762.938, 727.473 762.334, 716.631 766.415 C 692.469 775.508, 678.137 793.249, 670.521 823.488 C 665.131 844.890, 663.770 846.434, 639.500 858.688 C 603.743 876.742, 591.760 888.316, 583.329 912.941 C 575.709 935.194, 581.535 946.936, 593.738 933.920 C 611.320 915.167, 635.443 905.032, 662.559 905.006 C 675.318 904.993, 674.969 908.674, 660.807 923.507 C 642.110 943.090, 620.241 956.152, 593.756 963.553 C 561.500 972.567, 587.848 985.288, 630 981.052 C 686.147 975.410, 737.806 942.377, 768.507 892.485 C 772.573 885.877, 777.334 879.127, 779.087 877.485 C 797.911 859.853, 807.179 827.218, 799.482 805.669 C 797.804 800.969, 797.818 800.633, 799.997 793.291 C 807.820 766.939, 775.725 699.871, 746.707 681.935 C 743.843 680.165, 739.475 677.318, 737 675.609 C 719.481 663.513, 671.637 679.727, 625.102 713.532 C 620.645 716.770, 619.455 716.664, 612.966 712.451 C 609.960 710.500, 606.033 708.196, 604.239 707.332 C 600.352 705.460, 599.302 702.272, 600.860 697.072 C 602.867 690.376, 604.456 689.683, 618.266 689.486 C 631.270 689.300, 635.554 688.275, 642.652 683.651 C 644.769 682.272, 651.418 679.725, 657.430 677.991 C 680.172 671.428, 704.044 659.995, 721.449 647.330 C 728.888 641.918, 730.719 641.922, 736.847 647.364 C 747.898 657.179, 764.101 666.937, 772 668.533 C 779.354 670.020, 780.591 671.345, 786.871 684.474 C 797.555 706.809, 806.993 717.942, 826 730.630 C 844.719 743.126, 882.733 746.256, 881.807 735.225 C 881.310 729.311, 856.028 709.483, 843.858 705.463 C 835.631 702.745, 834.455 701.583, 830.935 692.694 C 826.028 680.305, 814.633 658.194, 809.963 652 C 807.681 648.975, 804.326 644.198, 802.506 641.384 C 794.073 628.348, 761.996 611.039, 738.812 607.015 C 735.340 606.412, 730.392 605.037, 727.815 603.960 C 718.861 600.215, 715.123 601.498, 691 616.599 C 674.546 626.899, 670.209 629.506, 652.325 639.850 C 644.890 644.151, 640.622 644.947, 635.484 642.994 C 630.811 641.217, 632.356 639.746, 644.350 634.552 C 647.567 633.159, 652.334 630.232, 654.943 628.048 C 657.552 625.863, 664.995 621.327, 671.483 617.966 C 691.629 607.533, 713.696 591.852, 730.190 576.250 C 740.653 566.353, 739.441 566.451, 751.377 574.544 C 766.105 584.530, 780.517 590, 792.102 590 C 797.693 590, 798.322 590.453, 805.882 599.920 C 828.959 628.820, 851.455 639.931, 884.447 638.723 C 903.803 638.014, 908 636.487, 908 630.155 C 908 624.650, 871.522 606, 860.754 606 C 856.138 606, 853.747 604.009, 848.396 595.708 C 822.571 555.654, 786.717 532.569, 745.500 529.458 C 741.650 529.167, 735.286 528.440, 731.358 527.842 C 721.400 526.325, 716.562 528.635, 703.394 541.194 C 669.380 573.634, 652.077 588, 647.019 588 C 642.325 588, 643.406 585.517, 650.500 580.006 C 653.800 577.443, 658.417 572.829, 660.759 569.753 C 663.102 566.678, 669.210 560.576, 674.334 556.194 C 693.294 539.976, 710.028 519.639, 726.513 492.780 C 729.307 488.228, 733.110 488.017, 740.955 491.977 C 753.881 498.503, 773.318 501.917, 784.724 499.666 L 788.949 498.833 798.724 508.167 C 825.328 533.567, 848.985 543.967, 873.843 541.189 C 899.517 538.320, 910.446 532.463, 904.725 524.639 C 901.673 520.464, 866.981 510, 856.195 510 C 851.620 510, 851.464 509.888, 842.602 500.250 C 831.460 488.131, 815.486 472.576, 811.500 469.963 C 792.587 457.565, 791.855 457.188, 780.701 454.105 C 760.121 448.416, 739.591 446.724, 719.613 449.070 C 701.216 451.230, 698.080 453.585, 685.981 474.326 C 679.302 485.777, 669.734 500.582, 656.463 520 C 649.161 530.683, 641.994 535.753, 640.328 531.413 C 639.912 530.329, 642.086 527.398, 647.188 522.163 C 656.116 513.003, 657.252 511.259, 660.090 502.359 C 661.293 498.587, 664.038 492.511, 666.189 488.857 C 677.769 469.191, 686.138 443.505, 689.168 418.328 C 690.835 404.483, 689.729 405.141, 710.296 405.757 C 725.625 406.216, 728.420 406.039, 735.940 404.136 C 740.583 402.961, 745.083 402.007, 745.940 402.017 C 746.798 402.026, 753.129 407.538, 760.009 414.267 C 775.710 429.622, 791.811 440.749, 803 443.977 C 807.125 445.167, 812.736 446.784, 815.468 447.570 C 832.311 452.418, 872 441.981, 872 432.703 C 872 426.469, 844.357 418, 824.010 418 L 815.240 418 801.171 402.651 C 780.789 380.416, 769.323 370.756, 751.795 361.056 C 736.926 352.827, 691.099 359.041, 667.579 372.476 C 663.223 374.964, 659.440 377, 659.174 377 C 652.768 377, 648.204 388.016, 645.959 408.897 C 640.087 463.502, 629.772 489.730, 623.553 465.869 C 622.783 462.916, 620.769 457.575, 619.078 454 C 616.713 449.004, 615.999 446.112, 615.993 441.500 C 615.960 419.779, 610.113 397.292, 600.969 383.721 C 596.921 377.713, 595.686 374.727, 593.619 365.944 C 587.734 340.946, 576.244 320.519, 559.612 305.489 L 552.500 299.062 552.826 284.709 C 553.383 260.228, 548.810 244.677, 535.579 226.055 C 530.025 218.238, 530.022 218.145, 534.944 210.570 C 544.541 195.801, 548 183.704, 548 164.902 C 548 151.877, 547.913 151.998, 560.135 148.050 C 573.379 143.772, 588.021 134.752, 597.453 125.061 C 602.456 119.922, 604.882 119.897, 611.408 124.919 C 622.384 133.366, 639.813 142.562, 654.378 147.593 C 665.740 151.517, 666.429 153.213, 659.433 160.042 C 604.242 213.919, 664.893 326.672, 743.899 317.066 C 761.357 314.943, 761.749 311.948, 745.470 305.064 C 706.866 288.738, 696.162 261.924, 721.734 245.605 C 763.377 219.029, 769.808 166.690, 735.764 131.421 C 730.513 125.981, 729.751 124.648, 728.518 118.757 C 721.134 83.464, 663.495 46.611, 613.918 45.486 C 605.273 45.289, 598.392 44.600, 594.987 43.589 C 588.239 41.585, 586.530 41.664, 575.500 44.497 M 572 58.613 C 541.570 67.588, 501 100.044, 501 115.414 C 501 123.605, 505.639 122.741, 512.628 113.250 C 525.053 96.375, 548.720 78, 558.030 78 C 561.759 78, 561.217 78.603, 548 89.158 C 529.592 103.857, 514 122.492, 514 129.792 C 514 136.496, 529.844 141.179, 544.418 138.782 C 570.714 134.457, 600.842 111.939, 590.476 104.358 C 587.581 102.242, 586.754 102.596, 579.398 109.098 C 571.245 116.305, 566.033 119.510, 557.324 122.671 C 544.770 127.228, 541.984 124.725, 552.750 118.561 C 576.065 105.210, 584.138 95.169, 583.285 80.585 C 583.017 76.010, 583.317 70.546, 583.975 68 C 586.361 58.769, 586.362 58.738, 584.455 57.344 C 582.114 55.632, 582.107 55.632, 572 58.613 M 605 58.706 C 595.811 62.065, 597.969 69.717, 607.749 68.457 C 625.862 66.124, 663.918 79.660, 676.427 92.885 C 681.109 97.834, 678.958 97.531, 666.339 91.465 C 635.030 76.414, 597.434 71.495, 596.182 82.286 C 594.183 99.529, 650.667 142.316, 669.268 137.648 C 677.805 135.505, 673.401 129.830, 658.679 124.005 C 640.111 116.657, 618.040 101.626, 621.192 98.474 C 621.387 98.280, 628.849 101.712, 637.774 106.102 C 665.494 119.737, 679.298 123.464, 689.151 119.977 C 692.643 118.741, 698.980 117.508, 703.233 117.237 C 714.699 116.507, 714.907 114.902, 705.143 102.438 C 684.022 75.476, 627.111 50.624, 605 58.706 M 482.906 131.250 C 467.239 148.331, 458.250 199.404, 469.016 210.170 C 473.979 215.133, 477.539 211.975, 475.972 204 C 472.867 188.205, 477.804 157.329, 484.052 153.468 C 486.183 152.151, 486.249 154.122, 484.497 166.659 C 481.015 191.585, 484.514 213.543, 492.552 217.206 C 498.270 219.811, 513.758 215.063, 519.874 208.830 C 534.986 193.430, 542.079 154.493, 530 153.241 C 525.542 152.779, 524.550 154.281, 524.819 161.091 C 525.307 173.444, 521.238 188.448, 515.493 195.479 C 511.677 200.150, 510.658 197.688, 513.219 189.982 C 515.815 182.169, 516.518 155.282, 514.231 151.281 C 513.533 150.060, 509.371 146.327, 504.981 142.986 C 500.592 139.644, 496.998 136.593, 496.995 136.205 C 496.983 134.467, 489.890 128, 487.995 128 C 486.836 128, 484.546 129.463, 482.906 131.250 M 693.059 133.172 C 681.920 139.010, 682.584 144.157, 694.605 145.157 C 712.560 146.650, 723.653 153.447, 729.704 166.664 C 735.653 179.658, 732.844 198.905, 723.900 206.431 C 719.440 210.183, 718.783 208.664, 721.120 199.999 C 732.573 157.515, 680.050 142.114, 658.728 181.704 C 644.671 207.805, 652.852 252.206, 676.449 277.885 C 692.070 294.884, 713.245 304.126, 703.410 289.652 C 688.888 268.281, 692.665 249.816, 714.616 234.875 C 739.797 217.734, 748.946 195.251, 741.984 167.620 C 735.433 141.621, 710.471 124.046, 693.059 133.172 M 682.524 172.063 C 663.349 181.627, 656.191 221.286, 669.313 245.250 C 673.741 253.337, 675.129 252.686, 673.043 243.500 C 665.850 211.825, 674.457 182.026, 692.231 177.070 C 697.932 175.480, 699.804 173.673, 698 171.500 C 696.183 169.310, 687.402 169.630, 682.524 172.063 M 464.354 227.436 C 453.108 235.466, 463.349 299.639, 475.394 296.616 C 479.236 295.652, 479.738 291.888, 476.996 284.601 C 471.579 270.207, 469.981 259.801, 471.642 249.750 C 472.668 243.540, 474.571 245.330, 476.427 254.250 C 482.621 284.019, 487.063 290.114, 500.737 287.604 C 505.557 286.720, 511.402 285.997, 513.727 285.998 C 521.331 286.002, 523.547 272.477, 518.545 256.591 C 516.857 251.228, 516.511 246, 517.845 246 C 522.613 246, 529.867 267.303, 529.965 281.595 C 530.005 287.373, 532.265 290.386, 536.143 289.830 C 547.034 288.271, 537.961 246.431, 523.448 231.284 C 518.935 226.574, 517.639 226.296, 510.409 228.488 C 498.941 231.964, 490.512 231.538, 468.500 226.372 C 467.400 226.114, 465.534 226.593, 464.354 227.436 M 500.085 301.052 C 476.525 307.221, 455.692 330.401, 446.609 360.552 C 445.653 363.727, 448.155 366.429, 451.317 365.635 C 455.260 364.646, 457.394 361.774, 461.440 352.013 C 465.980 341.061, 473.426 330.291, 480.112 325.006 C 488.903 318.057, 490.150 319.584, 483.420 329.055 C 476.497 338.796, 469.826 352.558, 470.194 356.342 L 470.500 359.500 477.500 359.265 C 488.534 358.895, 489.517 358.185, 492.485 348.455 C 495.986 336.980, 505.637 322.657, 511.185 320.705 C 516.315 318.901, 527.666 332.833, 531.610 345.775 C 535.219 357.617, 536.464 358.758, 546.696 359.602 C 559.273 360.640, 558.444 354.123, 543.047 330.909 C 536.797 321.486, 536.501 319.636, 541.682 322.361 C 548.984 326.202, 558.155 338.570, 564.399 353 C 572.048 370.675, 582.716 371.527, 576.447 353.962 C 562.538 314.998, 530.802 293.008, 500.085 301.052 M 508.794 334.750 C 503.222 341.181, 499.512 352.502, 501.996 355.495 C 503.793 357.660, 521.210 357.657, 523.008 355.490 C 528.617 348.731, 514.512 328.150, 508.794 334.750 M 287.500 370.908 C 276.824 372.248, 275.176 380.456, 284.200 387.339 C 297.741 397.668, 343 394.050, 343 382.639 C 343 376.179, 306.675 368.500, 287.500 370.908 M 494.978 371.070 C 457.422 374.184, 436.315 383.851, 429.955 400.849 C 426.464 410.180, 422.701 430.049, 423.919 432.722 C 426.198 437.723, 434 433.368, 434 427.095 C 434 391.450, 483.443 367.862, 489.581 400.579 C 492.132 414.179, 471.340 423.847, 465.004 412.007 C 461.509 405.478, 466.564 400.214, 470.812 405.959 C 476.522 413.683, 485.116 405.622, 480.042 397.301 C 471.828 383.830, 447.750 398.951, 444.439 419.659 C 442.969 428.851, 444.243 429.162, 466.500 425.041 C 475.300 423.411, 486.890 421.793, 492.255 421.445 C 505.473 420.588, 506.572 419.687, 504.387 411.500 C 501.567 400.930, 503.923 388.994, 509.898 383.591 C 516.976 377.190, 524.049 394.839, 520.963 411.199 C 519.256 420.243, 519.635 420.546, 533.781 421.451 C 539.676 421.828, 551.640 423.492, 560.366 425.148 C 582.159 429.283, 583.690 428.423, 579.522 414.386 C 573.331 393.539, 544 383.257, 544 401.934 C 544 408.921, 550.172 411.392, 554.158 406 C 557.878 400.968, 562.942 403.398, 561.415 409.482 C 559.678 416.404, 550.221 419.735, 543.999 415.618 C 524.243 402.544, 544.735 376.808, 566.444 387.429 C 579.289 393.713, 587.890 406.091, 590.440 421.963 C 592.236 433.140, 595.404 437.460, 600 435 C 604.724 432.472, 599.616 407.136, 591.717 393.917 C 581.718 377.184, 540.012 367.335, 494.978 371.070 M 716 371.074 C 677.811 375.291, 670.314 387.749, 703.073 392.556 C 721.585 395.272, 736.128 392.872, 743.039 385.961 C 754.705 374.295, 743.366 368.052, 716 371.074 M 243.700 401.250 C 226.859 418.490, 222.406 424.010, 223.352 426.475 C 224.994 430.754, 233.233 425.821, 253.376 408.500 C 264.955 398.543, 269.674 390.074, 265.800 386.200 C 262.507 382.907, 259.856 384.712, 243.700 401.250 M 759.413 387.493 C 756.758 391.545, 758.408 394.769, 767.883 404.038 C 793.136 428.743, 814.430 437.366, 794.634 414.871 C 770.588 387.546, 763.161 381.773, 759.413 387.493 M 356.487 391.115 C 345.731 396.348, 346.159 422.174, 357.521 453.497 C 366.982 479.577, 370.747 484.248, 376.303 476.798 L 378.318 474.097 374.681 459.298 C 371.155 444.956, 369.520 434.452, 366.651 407.713 C 364.961 391.963, 362.616 388.133, 356.487 391.115 M 662.173 392.507 C 660.842 394.200, 659.980 397.364, 659.519 402.257 C 657.136 427.541, 652.660 455.210, 649.475 464.350 C 646.554 472.733, 648.583 480, 653.845 480 C 665.275 480, 682.664 408.167, 674.134 396.188 C 669.885 390.220, 665.124 388.755, 662.173 392.507 M 495.603 434.112 C 469.396 435.782, 437.705 444.017, 424.833 452.502 C 413.672 459.858, 406.724 498, 416.545 498 C 420.650 498, 422.279 494.674, 423.041 484.738 C 423.866 473.975, 425.380 468.311, 428.466 464.440 C 430.845 461.457, 434.771 461.549, 433.615 464.561 C 433.289 465.410, 432.488 470.117, 431.836 475.019 C 429.947 489.205, 431.725 491.054, 443.332 486.975 C 478.170 474.730, 538.845 474.122, 577.638 485.629 C 582.512 487.074, 587.583 488.490, 588.906 488.775 C 593.876 489.844, 595.140 483.786, 592.846 469.897 C 591.422 461.277, 592.508 459.438, 596.336 463.987 C 599.683 467.965, 601.909 475.437, 602.689 485.309 C 603.560 496.342, 609.546 502.454, 613.056 495.896 C 614.995 492.273, 612.128 471.358, 608.423 462.099 C 603.023 448.604, 569.813 436.866, 529 434.028 C 513.199 432.929, 514.203 432.927, 495.603 434.112 M 506.455 449.455 C 503.196 452.713, 503.160 457.912, 506.370 461.644 C 511.486 467.591, 521.400 463.471, 521.400 455.398 C 521.400 447.952, 511.782 444.127, 506.455 449.455 M 479.750 453.080 C 477.258 454.532, 477.384 460.600, 479.934 461.965 C 482.647 463.417, 484.602 463.255, 486.429 461.429 C 490.933 456.924, 485.281 449.859, 479.750 453.080 M 539.612 453.294 C 536.690 455.431, 537.789 461.215, 541.355 462.462 C 546.459 464.246, 549.928 457.928, 546 454 C 543.673 451.673, 542.072 451.496, 539.612 453.294 M 565.571 459.571 C 562.551 462.592, 564.289 467, 568.500 467 C 572.711 467, 574.449 462.592, 571.429 459.571 C 570.564 458.707, 569.246 458, 568.500 458 C 567.754 458, 566.436 458.707, 565.571 459.571 M 267.384 462.545 C 236.403 467.067, 224.897 476.785, 240.874 484.936 C 257.345 493.339, 302.405 475.424, 294.633 463.562 C 292.637 460.517, 283.593 460.180, 267.384 462.545 M 731.571 462.571 C 724.329 469.814, 744.674 483.293, 768.617 487.113 C 784.830 489.701, 798.154 477.703, 787.221 470.362 C 778.122 464.252, 735.814 458.329, 731.571 462.571 M 708.334 465.314 C 705.629 466.795, 703.287 469.839, 698.961 477.500 C 691.705 490.348, 674.050 517.980, 667.036 527.465 C 658.039 539.631, 657.246 546, 664.729 546 C 674.189 546, 715.738 492.330, 717.575 477.737 C 718.515 470.271, 712.947 462.787, 708.334 465.314 M 310.477 467.394 C 304.844 475.992, 309.196 487.809, 326.458 510.787 C 337.107 524.961, 357.488 546, 360.570 546 C 367.712 546, 367.736 539.069, 360.624 530.156 C 353.496 521.222, 338.955 499.172, 331.175 485.500 C 319.445 464.886, 314.789 460.813, 310.477 467.394 M 202.827 498.250 C 187.249 514.441, 184.622 519, 190.868 519 C 195.494 519, 221.377 497.332, 222.607 492.429 C 225.726 480.001, 218.276 482.193, 202.827 498.250 M 803.536 486.960 C 800.675 490.122, 802.305 493.124, 811.739 502.061 C 822.712 512.457, 831.524 519, 834.551 519 C 840.966 519, 838.247 514.223, 822.869 498.478 C 809.104 484.385, 807.001 483.132, 803.536 486.960 M 382.400 490.400 C 375.929 496.871, 378.081 504.445, 389.320 514.750 C 397.593 522.335, 400.507 519.774, 399.468 505.831 C 398.196 488.769, 390.757 482.043, 382.400 490.400 M 632.763 488.565 C 624.736 492.920, 622.408 519, 630.045 519 C 634.777 519, 647.006 504.265, 646.993 498.579 C 646.976 490.639, 639.124 485.114, 632.763 488.565 M 486 491.044 C 448.771 495.598, 417.916 508.857, 411.780 522.937 C 407.241 533.351, 408.287 553, 413.380 553 C 417.718 553, 419.152 549.973, 419.459 540.172 C 419.978 523.618, 426.067 516.838, 427.036 531.736 C 427.790 543.326, 429.083 544.127, 440 539.770 C 476.208 525.320, 547.851 525.409, 586.111 539.951 C 596.324 543.833, 597.782 542.810, 598.204 531.463 C 598.778 516.046, 604.882 522.127, 605.915 539.146 C 606.553 549.662, 608.168 553, 612.620 553 C 619.670 553, 618.322 528.443, 610.712 518.249 C 596.223 498.840, 533.721 485.205, 486 491.044 M 506.455 503.455 C 503.067 506.843, 503.143 511.871, 506.636 515.364 C 512.107 520.834, 521.400 517.143, 521.400 509.500 C 521.400 501.955, 511.827 498.082, 506.455 503.455 M 473 507.923 C 457.898 511.217, 445 517.092, 445 520.677 C 445 521.861, 445.635 522.054, 447.750 521.512 C 455.636 519.490, 478.900 515.008, 481.527 515.004 C 484.836 515, 489.009 512.587, 488.985 510.693 C 488.928 506.307, 484.180 505.484, 473 507.923 M 538.750 507.080 C 533.304 510.252, 537.735 513.930, 549.024 515.608 C 553.970 516.343, 563.184 518.162, 569.499 519.649 C 582.180 522.635, 584.219 522.274, 578.994 517.966 C 571.738 511.985, 543.462 504.336, 538.750 507.080 M 299 541.694 C 294.827 543.185, 293.604 551.256, 296.596 557.560 C 302.878 570.799, 356.175 609.657, 362.885 605.891 C 368.245 602.882, 366.895 597.670, 359.264 591.911 C 351.776 586.261, 338.709 574.593, 322.516 559.098 C 310.446 547.548, 302.533 540.890, 301.100 541.079 C 300.770 541.122, 299.825 541.399, 299 541.694 M 498.500 541.709 C 447.750 544.507, 413.837 561.518, 412.264 584.965 C 411.285 599.550, 421.279 597.660, 423.501 582.840 C 424.299 577.518, 426.971 572.621, 429.946 571.029 C 432.201 569.822, 432.377 570.308, 432.025 576.752 C 431.765 581.492, 433.876 581.745, 444.357 578.230 C 466.119 570.932, 484.236 571.633, 503.473 580.519 C 512.492 584.685, 513.597 584.745, 520.166 581.416 C 538.944 571.900, 562.959 570.788, 582.315 578.537 C 590.825 581.943, 592.418 581.632, 592.785 576.492 C 593.241 570.109, 593.708 569.426, 596.123 571.612 C 598.911 574.134, 600.726 577.814, 602.010 583.546 C 604.996 596.867, 612.517 598.247, 612.471 585.466 C 612.388 562.162, 581.448 545.768, 530.500 542.034 C 517.036 541.047, 511.517 540.991, 498.500 541.709 M 722.299 542.013 C 721.089 542.500, 712.314 550.244, 702.799 559.222 C 687.105 574.031, 680.923 579.542, 665.134 592.800 C 652.110 603.736, 659.260 610.625, 674.542 601.865 C 714.642 578.881, 738.395 553.304, 728.670 543.580 C 725.864 540.773, 725.562 540.699, 722.299 542.013 M 264.953 545.002 C 244.393 550.062, 223 561.282, 223 567.005 C 223 577.218, 238.766 578.960, 255.500 570.597 C 284.377 556.164, 290.854 538.628, 264.953 545.002 M 746.645 544.498 C 741.165 549.978, 751.963 561.908, 770.923 571.319 C 785.820 578.714, 803 576.544, 803 567.267 C 803 558.606, 752.814 538.329, 746.645 544.498 M 377.488 549.377 C 371.679 558.244, 374.303 564.538, 387.131 572.504 C 397.997 579.251, 401.109 576.770, 398.018 563.826 C 394.640 549.684, 382.764 541.325, 377.488 549.377 M 635.380 549.463 C 630.970 552.134, 629.984 553.943, 627.555 563.831 C 623.868 578.839, 631.224 580.400, 645.706 567.685 C 656.813 557.933, 647.762 541.962, 635.380 549.463 M 506.589 556.077 C 503.589 559.642, 503.334 562.623, 505.772 565.633 C 509.813 570.621, 515.375 570.881, 519.016 566.253 C 525.455 558.066, 513.294 548.108, 506.589 556.077 M 481.655 555.829 C 479.265 558.470, 479.617 561.703, 482.500 563.592 C 487.503 566.870, 492.699 559.842, 488.429 555.571 C 486.341 553.484, 483.686 553.584, 481.655 555.829 M 537 556 C 534.662 558.338, 534.496 559.928, 536.328 562.434 C 538.963 566.038, 546 563.765, 546 559.309 C 546 557.526, 542.347 554, 540.500 554 C 539.675 554, 538.100 554.900, 537 556 M 201.230 584.250 C 187.134 602.075, 182.715 611.104, 187.738 611.818 C 191.851 612.402, 214.041 588.574, 213.968 583.650 C 213.853 575.871, 207.624 576.164, 201.230 584.250 M 813.217 579.250 C 812.116 580.591, 811.692 582.478, 811.882 585.198 C 812.180 589.475, 833.686 612, 837.471 612 C 841.125 612, 840.772 608.801, 836.314 601.520 C 824.484 582.201, 816.846 574.836, 813.217 579.250 M 459.500 587.563 C 438.276 591.731, 417.035 609.504, 417.006 623.119 C 416.984 633.215, 427.950 672.179, 431.994 676.371 C 434.391 678.858, 435.465 678.005, 439.160 670.677 C 442.241 664.568, 444.827 661.022, 457.470 645.570 C 469.659 630.674, 469.984 616.178, 458.255 610.584 C 445.950 604.717, 431.281 618.219, 439.943 627.439 C 444.218 631.989, 448.895 630.532, 451.785 623.750 C 454.343 617.749, 460.124 623.065, 458.009 629.473 C 454.576 639.876, 439.790 641.146, 432.554 631.660 C 420.778 616.221, 441.035 593.817, 459.145 602.251 C 479.998 611.963, 480.142 630.983, 459.551 655.830 C 440.795 678.463, 434.873 701.199, 449.940 692.729 C 459.349 687.440, 472.019 688.479, 478.785 695.094 C 484.471 700.653, 484.401 705.957, 478.685 702.580 C 468.593 696.618, 463.598 695.757, 456.723 698.798 C 443.898 704.472, 442.931 722.136, 454.988 730.492 C 461.374 734.917, 466.182 734.903, 474.500 730.435 C 491.355 721.381, 490.825 721.561, 499.750 721.839 C 509.843 722.154, 515.647 722.140, 525.856 721.778 L 533.711 721.500 546.106 727.772 C 559.076 734.335, 560.562 734.714, 566.101 732.866 C 579.468 728.406, 583.345 710.358, 572.835 701.515 C 566.198 695.930, 557.304 695.943, 548.771 701.550 C 542.255 705.832, 540.294 704.497, 544.087 698.359 C 549.541 689.535, 564.288 686.560, 574.376 692.250 C 590.306 701.235, 585.160 679.753, 565.541 655.372 C 547.185 632.559, 545.838 615.660, 561.512 604.820 C 583.761 589.432, 609.874 619.241, 588.615 635.759 C 579.003 643.227, 560.105 630.549, 568.937 622.557 C 571.294 620.424, 572.448 621.035, 574.592 625.553 C 577.416 631.505, 583.884 631.409, 586.762 625.373 C 591.576 615.278, 578.010 605.230, 567.020 610.752 C 556.232 616.172, 555.666 630.651, 565.753 643.139 C 567.814 645.691, 572.509 651.493, 576.188 656.034 C 579.866 660.574, 584.248 666.865, 585.926 670.012 C 591.918 681.255, 592.717 680.837, 599.002 663.155 C 612.230 625.945, 611.687 615.042, 595.973 602.304 C 573.904 584.414, 549.180 581.539, 523.916 593.922 C 513.609 598.974, 512.401 598.973, 501.947 593.904 C 486.452 586.392, 474.531 584.611, 459.500 587.563 M 536.155 601.604 C 533.484 603.475, 533.395 606.143, 535.928 608.435 C 538.399 610.671, 541.791 609.681, 542.592 606.490 C 543.689 602.119, 539.721 599.107, 536.155 601.604 M 380.405 604.105 C 373.179 612.090, 381.495 623.751, 396.412 626.549 C 408.666 628.848, 406.740 607.825, 394.308 603.589 C 387.718 601.344, 382.737 601.528, 380.405 604.105 M 630.500 603.574 C 617.895 608.091, 618.174 629.470, 630.795 626.155 C 644.114 622.657, 649.353 616.905, 646.971 608.397 C 645.129 601.817, 639.777 600.250, 630.500 603.574 M 509.223 614.262 C 500.002 624.078, 499.876 647.240, 508.983 658.149 C 512.738 662.647, 515.143 661.487, 519.215 653.215 C 527.577 636.228, 519.215 603.627, 509.223 614.262 M 303.571 617.571 C 301.808 619.335, 301.528 623.629, 302.937 627.334 C 307.817 640.169, 369.588 671.244, 373.965 663.066 C 376.692 657.969, 375.142 655.362, 366.500 650.519 C 363.750 648.978, 358.495 646.033, 354.823 643.975 C 351.151 641.916, 339.407 634.780, 328.727 628.116 C 309.084 615.861, 306.405 614.738, 303.571 617.571 M 708.415 620.854 C 704.062 623.523, 694.650 629.338, 687.500 633.776 C 680.350 638.213, 669.325 644.729, 663 648.256 C 650.464 655.245, 648.544 657.510, 650.857 662.586 C 654.666 670.946, 711.338 644.169, 721.508 629.204 C 729.274 617.774, 721.511 612.823, 708.415 620.854 M 270.115 625.613 C 242.177 636.860, 229.155 648.466, 238.250 654.011 C 251.160 661.882, 295.718 633.186, 286.464 622.960 C 284.013 620.252, 283.035 620.411, 270.115 625.613 M 739.750 622.067 C 729.967 627.837, 760.380 654.289, 778.527 655.794 C 787.025 656.499, 792.747 652.133, 790.016 647.030 C 785.254 638.132, 745.763 618.521, 739.750 622.067 M 479.571 652.571 C 475.719 656.424, 482.186 672.772, 490.245 679.553 C 502.910 690.209, 511.101 688.740, 507.529 676.452 C 503.042 661.017, 485.829 646.314, 479.571 652.571 M 535.385 653.952 C 517.347 664.299, 509.342 694.008, 527.023 684.988 C 536.178 680.318, 543.460 671.023, 546.058 660.691 C 548.462 651.131, 544.578 648.680, 535.385 653.952 M 393.364 656.114 C 389.070 658.305, 387.710 665.604, 390.566 671.128 C 394.531 678.794, 415 679.496, 415 671.966 C 415 660.182, 402.846 651.277, 393.364 656.114 M 620.500 655.797 C 616.245 657.292, 614.849 658.819, 612.490 664.559 C 608.473 674.329, 610.092 677, 620.032 677 C 630.953 677, 636.224 672.965, 636.406 664.466 C 636.561 657.212, 628.687 652.921, 620.500 655.797 M 222.608 666.250 C 216.074 672.122, 203.373 704.992, 207.324 705.801 C 211.903 706.740, 230 678.309, 230 670.177 C 230 664.856, 226.329 662.906, 222.608 666.250 M 797 666 C 793.495 669.505, 798.197 681.396, 809.848 698.500 C 818.433 711.102, 823.409 707.598, 816.993 693.468 C 803.629 664.037, 801.663 661.337, 797 666 M 318.593 689.619 C 318.219 690.593, 319.481 693.682, 321.760 697.369 C 326.588 705.182, 327.548 707.172, 330.031 714.499 C 335.743 731.357, 359.692 745.790, 385.116 747.696 C 400.050 748.816, 403.575 732.716, 390.665 722.355 C 365.464 702.132, 321.461 682.145, 318.593 689.619 M 690.884 690.980 C 671.812 697.331, 637.697 717.441, 629.530 727.147 C 626.642 730.579, 626.574 732.836, 629.075 742.233 C 633.543 759.024, 687.871 737.375, 694.907 716 C 696.831 710.154, 700.219 703.252, 705.501 694.418 C 709.660 687.462, 704.848 686.329, 690.884 690.980 M 738.498 697.363 C 733.801 704.531, 731.992 732.389, 735.407 744.956 C 738.852 757.634, 741.903 761.443, 749.884 763.031 C 761.116 765.267, 770.726 769.554, 778.790 775.928 C 797.482 790.704, 787.349 756.493, 761.450 717.389 C 748.834 698.340, 741.850 692.247, 738.498 697.363 M 276.465 701.250 C 263.334 715.854, 246.418 744.608, 240.431 762.501 C 234.537 780.113, 236.217 783.928, 246.408 776.077 C 253.417 770.676, 264.834 765.396, 273.826 763.395 C 287.544 760.343, 292.890 748.087, 291.662 722.500 C 290.425 696.738, 286.038 690.603, 276.465 701.250 M 303.381 699.450 C 302.266 702.355, 305.117 718.117, 307.120 720.120 C 310.661 723.661, 316 721.744, 316 716.932 C 316 709.541, 305.233 694.624, 303.381 699.450 M 716.663 701.250 C 709.452 710.859, 707.276 719.258, 711.500 721.182 C 717.309 723.829, 720.062 720.294, 721.957 707.758 C 723.550 697.220, 721.541 694.750, 716.663 701.250 M 509.473 702.030 C 508.019 703.637, 507.834 704.628, 508.588 706.780 C 510.370 711.869, 517 710.527, 517 705.078 C 517 700.057, 512.798 698.356, 509.473 702.030 M 458.913 710.087 C 455.380 713.620, 458.350 719.889, 463.595 719.968 C 468.327 720.040, 470.792 712.932, 467.171 709.655 C 464.685 707.405, 461.425 707.575, 458.913 710.087 M 558 710 C 555.597 712.403, 555.462 714.786, 557.557 717.777 C 559.479 720.522, 564.033 720.726, 566.345 718.171 C 571.607 712.357, 563.541 704.459, 558 710 M 343.323 712.601 C 341.220 718.082, 370.216 736, 381.188 736 C 389.764 736, 385.496 731.338, 370.675 724.518 C 364.285 721.577, 355.667 717.300, 351.524 715.014 C 344.828 711.317, 343.918 711.049, 343.323 712.601 M 671.500 716.186 C 667.650 718.380, 659.866 722.218, 654.203 724.715 C 642.072 730.064, 639.386 731.958, 640.354 734.481 C 642.836 740.949, 674.877 725.563, 681.443 714.750 C 683.936 710.644, 680.306 711.169, 671.500 716.186 M 747 719.362 C 747 720.112, 748.302 723.882, 749.893 727.740 C 751.484 731.598, 754.470 739.339, 756.528 744.943 C 763.750 764.604, 771.370 762.355, 764.807 742.500 C 760.591 729.743, 747 712.084, 747 719.362 M 272.016 722.140 C 263.821 730.716, 255.947 751.870, 259.273 756.377 C 261.621 759.558, 264.474 756.933, 267.545 748.765 C 269.047 744.769, 272.014 737.065, 274.138 731.644 C 279.412 718.183, 278.728 715.118, 272.016 722.140 M 423.500 720.657 C 409.552 727.987, 404.449 752.216, 415.858 756.941 C 421.309 759.199, 436.883 753.648, 444.154 746.856 C 447.870 743.385, 447.800 742.967, 442.494 736.994 C 440.016 734.203, 436.663 729.295, 435.043 726.086 C 431.288 718.647, 429.196 717.663, 423.500 720.657 M 593.902 720.238 C 593.024 720.932, 591.091 723.979, 589.608 727.010 C 588.124 730.040, 585.131 734.447, 582.955 736.803 C 576.939 743.319, 578.415 746.744, 589.658 752.363 C 607.389 761.224, 616.589 758.083, 615.770 743.450 C 614.987 729.472, 601.003 714.628, 593.902 720.238 M 493.655 735.829 C 491.437 738.280, 491.411 738.198, 496.166 743.689 C 504.490 753.303, 507.921 768.450, 500.706 763.729 C 499.493 762.935, 495.836 762.066, 492.581 761.797 C 485.452 761.207, 482 758.135, 482 752.378 C 482 745.423, 477.504 742.576, 473.502 746.998 C 467.687 753.424, 487.605 772.300, 503.739 775.652 C 524.183 779.900, 554.477 763.628, 552.818 749.290 C 552.076 742.869, 544 744.135, 544 750.672 C 544 757.860, 538.565 762.933, 532.316 761.577 C 530.453 761.173, 528.267 761.630, 525.860 762.926 C 518.130 767.088, 520.493 753.001, 529.068 743.806 C 536.859 735.450, 530.859 731.103, 517.715 735.582 C 513.482 737.024, 512.593 737.024, 507.633 735.582 C 500.386 733.475, 495.710 733.557, 493.655 735.829 M 281.500 775.638 C 261.976 779.602, 256.684 786.377, 256.609 807.500 C 256.483 842.996, 280.893 864.515, 333.500 875.284 C 352.617 879.198, 353.276 880.583, 335.878 880.281 C 285.837 879.415, 246.125 848.235, 245.985 809.701 C 245.952 800.686, 241.839 800.899, 238.578 810.085 C 227.489 841.319, 251.918 876.416, 293.290 888.692 L 305.500 892.315 344.500 893.044 C 368.013 893.483, 385.287 894.228, 388 894.919 C 397.546 897.350, 405.828 900.434, 414.086 904.634 C 423.932 909.641, 425 909.846, 425 906.737 C 425 897.924, 404.835 881.092, 381.603 870.513 C 355.302 858.536, 349.226 851.901, 343.071 828.439 C 333.314 791.245, 308.680 770.119, 281.500 775.638 M 729 776.028 C 705.593 780.835, 690.818 797.035, 683.036 826.428 C 676.135 852.495, 673.157 855.901, 644.894 870.053 C 620.677 882.179, 606.875 892.606, 601.640 902.729 C 598.117 909.543, 600.450 909.934, 611.597 904.398 C 631.843 894.343, 640.743 892.943, 686.595 892.599 C 723.644 892.321, 727.116 891.845, 744.931 884.606 C 776.233 871.887, 795.426 838.912, 787.465 811.527 C 784.063 799.826, 780.245 800.652, 778.846 813.390 C 775.155 846.975, 750.349 870.152, 709.342 878.329 C 681.948 883.791, 672.400 879.858, 698.685 873.938 C 739.915 864.653, 760.685 848.447, 767.519 820.231 C 774.926 789.649, 757.887 770.096, 729 776.028 M 474.667 778.667 C 472.622 780.711, 476.372 791.438, 479.558 792.661 C 484.176 794.433, 485.715 785.143, 481.548 780.646 C 479.211 778.124, 476.103 777.230, 474.667 778.667 M 544.635 780.073 C 542.517 781.738, 542 782.990, 542 786.450 C 542 794.307, 547.239 794.150, 550.563 786.195 C 553.517 779.125, 550.198 775.697, 544.635 780.073 M 282 789.587 C 271.194 793.614, 273.880 798.349, 287.500 799.282 C 300.913 800.201, 309.597 805.438, 318.096 817.733 C 323.856 826.065, 325.514 826.866, 324.718 820.935 C 322.274 802.710, 296.850 784.053, 282 789.587 M 727 791.046 C 713.394 795.930, 701 810.457, 701 821.520 C 701 825.406, 702.466 824.502, 707.419 817.562 C 716.081 805.423, 724.953 800.157, 738.281 799.243 C 747.400 798.618, 750.916 796.580, 749.011 793.021 C 746.787 788.865, 735.819 787.881, 727 791.046 M 281 902.670 C 281 904.967, 287.929 913.521, 295.288 920.307 C 322.052 944.992, 349.371 959.595, 380.657 965.940 C 402.990 970.469, 403.896 968.129, 384.500 956.015 C 366.681 944.886, 350.263 929.078, 340.248 913.407 C 336.362 907.327, 333.814 906, 326.024 906 C 313.553 906, 314.411 909.203, 331.590 926.794 C 338.913 934.293, 344.722 940.611, 344.499 940.834 C 341.335 943.998, 318.526 926.527, 307.917 912.813 C 301.367 904.347, 298.091 902.606, 286.250 901.299 C 281.514 900.777, 281 900.911, 281 902.670 M 732.500 902.880 C 723.978 905.348, 722.698 906.232, 716.630 913.837 C 709.031 923.361, 699.554 931.756, 690.660 936.844 C 678.885 943.580, 679.255 941.546, 692.198 928.390 C 711.786 908.479, 712.542 906, 699.023 906 C 690.903 906, 689.732 906.772, 682.723 916.747 C 671.733 932.387, 659.255 944.069, 640.921 955.883 C 627.600 964.466, 627 964.925, 627 966.547 C 627 968.791, 634.561 968.379, 647.880 965.408 C 679.726 958.303, 710.128 941.079, 733.608 916.838 C 748.033 901.944, 747.757 898.462, 732.500 902.880" fill="currentColor" fill-rule="evenodd" />
</svg>
