<svg
  xmlns="http://www.w3.org/2000/svg"
  viewBox="0 0 1024 1024"
  fill="currentColor"
>
  <!-- VRISCHIKA (Clean Micro-Cut: High-Legibility Simplified Lines for Small Sizes) -->
  <path d="M 560.500 138.960 C 534.856 145.739, 508.417 164.240, 495.486 184.454 C 493.637 187.345, 489.857 191.608, 487.085 193.929 C 469.439 208.703, 458.682 244.014, 464.410 268.360 C 465.719 273.925, 465.671 274.479, 463.453 279.360 C 456.295 295.110, 458.256 321.883, 467.987 341.254 L 471.882 349.008 466.428 355.254 C 458.779 364.013, 451.562 378.813, 448.188 392.660 C 446.191 400.853, 444.597 405.033, 442.191 408.384 C 434.783 418.699, 430.041 435.288, 430.009 451 C 429.995 457.925, 429.555 460.360, 427.636 464.143 C 426.340 466.696, 424.475 471.759, 423.492 475.393 C 421.634 482.256, 420.184 483.415, 416.790 480.750 C 413.701 478.325, 410.012 461.349, 406.501 433.406 C 403.108 406.408, 404.084 407.945, 384 397.969 C 364.099 388.085, 329.015 384.813, 320 392.001 C 318.625 393.098, 315.399 395.110, 312.831 396.473 C 305.525 400.351, 297.098 407.889, 283.548 422.664 L 271.046 436.298 262.273 436.489 C 253.954 436.670, 231.825 441.418, 226.823 444.095 C 224.164 445.518, 224.424 450.581, 227.250 452.411 C 238.576 459.746, 265.102 463.405, 274.859 458.978 C 277.257 457.890, 280.087 457, 281.149 457 C 286.663 457, 301.044 446.972, 315.182 433.270 L 325.865 422.917 329.536 424.450 C 335.760 427.051, 349.904 428.286, 359.719 427.085 C 370.224 425.800, 369.816 425.446, 371.105 436.992 C 373.170 455.491, 380.940 479.007, 389.660 493.149 C 392.047 497.022, 394 501.130, 394 502.279 C 394 506.687, 398.556 513.727, 406.279 521.250 C 413.358 528.147, 413.953 529, 411.682 529 C 404.698 529, 397.456 520.181, 378.014 488 C 362.292 461.977, 363.403 462.888, 345.136 461.024 C 322.447 458.708, 292.989 463.853, 283.003 471.877 C 281.076 473.425, 278 475.466, 276.168 476.414 C 272.054 478.540, 259.078 490.815, 249.648 501.500 L 242.588 509.500 235.044 510.105 C 226.249 510.809, 202.954 518.275, 199.038 521.644 C 191.746 527.916, 204.093 533.775, 226.500 534.675 C 235.527 535.038, 239.615 534.787, 243 533.663 C 261.059 527.670, 268.646 523.090, 282.574 509.774 L 291.870 500.888 296.185 502.053 C 304.384 504.268, 320.194 500.989, 333.270 494.363 C 339.192 491.362, 338.402 490.878, 344.472 501.231 C 352.817 515.467, 369.307 534.551, 387.500 551.029 C 390.250 553.519, 393.967 557.432, 395.760 559.724 C 397.554 562.015, 401.716 565.554, 405.010 567.587 C 412.016 571.912, 412.435 573, 407.092 573 C 401.835 573, 391.844 564.994, 363.854 538.350 C 349.381 524.573, 344.981 522.079, 338.385 523.910 C 336.248 524.503, 332.569 524.991, 330.208 524.994 C 297.932 525.036, 259.708 549.574, 242.077 581.569 C 239.903 585.514, 239.609 585.676, 232.377 586.891 C 219.714 589.019, 196 601.888, 196 606.632 C 196 614.099, 231.334 615.766, 243.975 608.895 C 245.914 607.841, 248.175 606.604, 249 606.147 C 249.825 605.689, 252.738 604.231, 255.474 602.907 C 261.698 599.895, 271.172 591.110, 278.464 581.589 L 284.056 574.289 291.577 573.653 C 300.990 572.857, 311.532 568.609, 322.168 561.325 C 331.619 554.852, 330.857 554.863, 336.710 561.126 C 346.904 572.035, 369.742 588.461, 386 596.578 C 391.225 599.187, 397.335 602.987, 399.579 605.023 C 403.418 608.508, 407.773 610.416, 417.750 612.983 C 422.827 614.290, 423.337 616, 418.649 616 C 416.806 616, 413.925 616.479, 412.246 617.064 C 408.655 618.316, 402.195 614.998, 373.913 597.381 C 349.561 582.211, 347.481 581.441, 340.500 585 C 338.342 586.100, 335.426 587, 334.018 587 C 320.806 587, 286.329 604.739, 281.150 614.201 C 280.243 615.860, 277.791 619.305, 275.703 621.858 C 271.756 626.683, 260.004 649.688, 257.056 658.361 C 255.470 663.027, 255.043 663.445, 250.249 665.007 C 240.466 668.196, 216.841 685.225, 216.212 689.540 C 215.364 695.359, 224.619 697.002, 241 693.941 C 255.422 691.246, 260.515 688.462, 276.911 674.308 C 282.325 669.635, 288.850 659.750, 294.515 647.640 L 298.790 638.500 306.145 636.228 C 314.522 633.641, 322.841 628.684, 331.406 621.177 C 338.041 615.360, 339.635 614.993, 343.673 618.350 C 355.278 627.997, 386.034 642.358, 401.920 645.547 C 403.801 645.925, 407.068 647.486, 409.181 649.016 C 413.971 652.486, 423.090 654.196, 432.241 653.342 L 438.982 652.712 440.527 656.409 C 443.658 663.903, 443.552 665.535, 439.843 667.004 C 438.004 667.733, 434.361 669.830, 431.748 671.664 C 425.823 675.823, 427.237 676.118, 417.115 668.609 C 391.819 649.845, 367.003 639.818, 345.320 639.602 C 335.745 639.506, 334.973 639.651, 332.320 642.048 C 330.769 643.449, 328.193 645.249, 326.595 646.048 C 321.452 648.620, 311.964 659.192, 303.950 671.282 C 285.095 699.725, 277.111 724.336, 282.876 736.243 C 284.930 740.487, 284.954 740.873, 283.417 745.090 C 277.152 762.288, 282.689 784.144, 297.716 801.533 C 301.534 805.951, 306.504 812.701, 308.759 816.533 C 336.631 863.882, 398.520 893.958, 449.791 885.070 C 460.660 883.185, 463.621 875.448, 454.237 873.449 C 429.943 868.273, 406.571 854.598, 390.753 836.303 C 381.189 825.243, 381.407 824.566, 394.250 825.439 C 417.977 827.051, 431.755 832.819, 445.469 846.880 C 456.583 858.276, 461.589 853.444, 457.052 835.703 C 451.535 814.131, 441.220 803.438, 411.065 788.033 C 391.318 777.945, 390.471 777.008, 386.447 760.788 C 380.369 736.286, 367.092 719.741, 349.179 714.347 C 341.807 712.127, 340.433 710.928, 341.971 708.054 C 342.612 706.856, 343.899 702.191, 344.831 697.688 L 346.524 689.500 353.966 689 L 361.408 688.500 367.954 693.351 C 382.447 704.090, 398.604 710, 413.473 710 C 421.212 710, 421.770 710.151, 424.478 712.977 C 431.944 720.770, 449.434 718.297, 463.674 707.435 C 469.600 702.915, 473.834 707.418, 471.844 716.122 C 468.838 729.265, 476.875 744.011, 490.577 750.493 C 500.923 755.388, 505.199 752.518, 500.725 743.682 C 499.226 740.722, 498 736.977, 498 735.360 L 498 732.419 510.250 732.374 C 516.987 732.349, 523.400 732.143, 524.500 731.915 C 527.456 731.302, 526.802 737.779, 523.274 744.055 C 516.867 755.453, 529.587 755.749, 542.719 744.508 C 550.224 738.084, 555.181 722.734, 552.237 715.031 C 551.547 713.225, 551.750 711.543, 552.992 708.769 C 555.371 703.455, 555.263 703.474, 560.737 707.407 C 577.018 719.104, 591.992 721.086, 599.924 712.595 C 602.151 710.211, 603.014 710, 610.514 710 C 625.628 710, 642.249 703.988, 656.049 693.529 L 662.684 688.500 670.009 689 L 677.334 689.500 679.616 698.500 C 680.871 703.450, 682.187 708.469, 682.540 709.653 C 683.113 711.571, 682.551 711.989, 677.371 713.494 C 657.474 719.279, 643.630 735.535, 637.851 759.903 C 633.791 777.018, 632.981 777.966, 614.500 787.217 C 583.435 802.766, 571.146 815.650, 566.511 837.529 C 564.567 846.707, 564.628 849.353, 566.829 851.345 C 569.966 854.184, 572.035 853.242, 580.491 845.124 C 594.038 832.118, 606.728 827.051, 629.750 825.454 C 641.992 824.604, 642.420 825.179, 635.865 833.675 C 623.014 850.332, 599.940 865.204, 577 871.614 C 565.974 874.695, 565 875.295, 565 879 C 565 882.765, 566.318 883.566, 575 885.072 C 624.674 893.687, 683.828 865.813, 713.009 820.039 C 716.579 814.439, 721.924 807.077, 724.886 803.679 C 741.180 784.985, 747.148 763.706, 741.052 746.045 C 739.203 740.690, 739.204 740.521, 741.084 736.835 C 747.244 724.761, 739.022 699.379, 719.349 669.732 C 712.317 659.134, 700.784 646.681, 696.917 645.508 C 695.588 645.105, 693.299 643.652, 691.832 642.279 C 680.466 631.645, 632.840 647.435, 602.612 671.859 C 597.856 675.702, 597.762 675.704, 593.191 672.045 C 591.161 670.420, 587.793 668.381, 585.706 667.514 C 580.865 665.501, 580.510 664.414, 582.738 658.415 L 584.562 653.500 595.531 653.384 C 606.893 653.264, 612.225 651.920, 616.486 648.099 C 617.594 647.107, 621.875 645.500, 626 644.529 C 640.190 641.187, 661.478 631.388, 675.943 621.539 C 685.902 614.757, 684.541 614.692, 694.201 622.421 C 703.371 629.758, 711.907 634.584, 719.923 636.964 L 725.475 638.612 731.487 650.598 C 738.597 664.771, 742.377 670.394, 747.930 675.058 C 750.183 676.951, 753.933 680.130, 756.263 682.123 C 770.876 694.618, 808 700.696, 808 690.593 C 808 686.465, 789.281 671.556, 777.997 666.697 C 774.424 665.159, 770.893 663.578, 770.150 663.186 C 769.408 662.793, 767.342 658.878, 765.558 654.486 C 760.841 642.866, 753.689 629.056, 749.649 623.763 C 747.714 621.229, 745.464 617.883, 744.648 616.327 C 739.620 606.744, 716.800 593.218, 698.340 588.881 C 689.307 586.758, 685.538 585.647, 680.840 583.720 C 677.408 582.313, 672.400 583.763, 664.998 588.306 C 661.974 590.162, 652.975 595.715, 645 600.647 C 620.696 615.675, 615.238 618.429, 612.363 617.120 C 611.012 616.504, 607.452 616, 604.453 616 C 597.974 616, 597.236 614.528, 603.250 613.600 C 611.557 612.319, 620.276 608.786, 624.423 605.021 C 626.666 602.986, 632.775 599.188, 638 596.582 C 654.631 588.286, 675.815 573.092, 687.462 561.106 C 693.464 554.930, 692.786 554.958, 700.631 560.556 C 712.011 568.677, 725.590 573.964, 735.129 573.988 C 739.753 574, 739.767 574.010, 746.893 582.934 C 754.950 593.024, 762.384 599.763, 769 602.975 C 771.475 604.176, 774.175 605.569, 775 606.069 C 784.901 612.075, 791.700 613.407, 809.409 612.806 C 824.232 612.303, 828 611.035, 828 606.550 C 828 601.325, 802.098 587.742, 789.989 586.617 C 787.136 586.352, 784.700 585.992, 784.577 585.818 C 784.453 585.643, 782.859 583.027, 781.035 580.005 C 760.790 546.471, 733.804 529.246, 694.687 524.890 C 676.051 522.814, 677.188 522.305, 656.437 542.026 C 633.133 564.174, 622.186 572.929, 617.750 572.968 C 612.426 573.014, 613.040 571.792, 621.005 566.497 C 625.672 563.394, 628.856 560.395, 630.548 557.508 C 631.944 555.126, 635.532 551.290, 638.521 548.984 C 650.852 539.471, 671.325 515.705, 679.146 501.826 C 685.297 490.910, 684.177 491.351, 694.324 495.857 C 706.572 501.297, 718.292 503.665, 726.341 502.327 L 732.500 501.303 741.500 509.776 C 752.863 520.473, 766.827 530, 771.144 530 C 771.818 530, 774.423 531.013, 776.934 532.250 C 787.377 537.396, 823.293 533.841, 826.242 527.368 C 828.313 522.824, 826.172 520.835, 814.867 516.800 C 800.585 511.703, 793.563 510, 786.825 510 C 781.879 510, 780.902 509.684, 779.873 507.750 C 777.730 503.721, 753.622 479.880, 749 477.218 C 746.525 475.792, 743.080 473.410, 741.343 471.925 C 731.837 463.794, 699.377 458.445, 676.882 461.305 C 660.953 463.329, 659.873 464.235, 647.456 486 C 632.969 511.393, 620.742 527.582, 615.278 528.608 C 609.943 529.608, 610.235 528.384, 616.735 522.502 C 623.855 516.058, 628.693 509.160, 629.636 504.106 C 630.007 502.123, 632.457 496.750, 635.083 492.167 C 644.229 476.202, 650.665 456.465, 653.074 437 C 654.537 425.182, 653.928 425.707, 664.654 427.011 C 674.699 428.233, 688.325 427.054, 694.990 424.387 L 698.835 422.849 706.667 431.047 C 715.416 440.205, 731.392 452.669, 737.500 455.103 C 753.143 461.336, 762.980 462.449, 776.768 459.549 C 798.754 454.924, 806.660 446.508, 792.726 442.562 C 775.319 437.631, 770.881 436.760, 762.227 436.571 L 752.953 436.369 745.142 427.435 C 728.936 408.898, 715.565 397.528, 702 390.749 C 691.096 385.300, 657.416 389.227, 640 397.979 C 620.536 407.759, 620.601 407.671, 618.443 427.317 C 615.448 454.586, 610.486 478.296, 607.261 480.750 C 603.903 483.304, 602.376 482.259, 601.094 476.529 C 600.421 473.520, 598.598 468.458, 597.044 465.279 C 594.573 460.227, 594.148 457.991, 593.666 447.500 C 592.887 430.549, 588.160 415.491, 580.763 406.399 C 579.432 404.763, 577.875 400.831, 577.189 397.373 C 572.862 375.575, 561.904 356.511, 546.707 344.342 L 542.913 341.304 544.031 334.402 C 546.676 318.074, 541.173 297.748, 530.129 283.049 L 526.037 277.603 528.188 274.051 C 538.202 257.523, 540.203 251.314, 540.440 236.046 L 540.617 224.593 549.768 221.425 C 560.696 217.642, 571.661 211.009, 578.462 204.066 C 583.675 198.744, 585.884 197.950, 588.087 200.605 C 592.080 205.416, 611.883 216.322, 625 220.933 C 635.857 224.749, 635.687 224.274, 628.701 231.279 C 597.994 262.075, 613.912 327.177, 657.367 348.513 C 673.067 356.222, 691.486 358.638, 705.310 354.801 C 712.103 352.916, 711.503 352.026, 700.360 347.461 C 678.642 338.563, 668.082 327.865, 668.022 314.700 C 667.990 307.720, 669.958 304.856, 678.407 299.591 C 711.043 279.249, 717.359 235.416, 691.405 209.386 C 686.146 204.111, 685.220 202.621, 684.659 198.530 C 683.714 191.637, 679.548 184.733, 670.663 175.335 C 648.117 151.489, 618.461 138.299, 589.130 139.073 C 584.934 139.184, 580.233 138.763, 578.685 138.137 C 574.717 136.534, 568.638 136.809, 560.500 138.960 M 558.500 150.388 C 531.924 159.116, 503.008 182.973, 504.183 195.202 C 504.666 200.223, 506.731 199.309, 513.354 191.143 C 524.134 177.850, 542.081 164.993, 554.750 161.488 C 558.467 160.459, 557.425 163.319, 553.280 165.523 C 536.124 174.642, 509.319 203.229, 512.823 208.670 C 520.028 219.859, 553.816 213.177, 570.881 197.189 L 577.193 191.275 575.604 188.201 C 573.080 183.321, 572.238 183.454, 565.651 189.780 C 557.055 198.034, 542.448 205, 533.735 205 C 529.106 205, 530.937 203.191, 539.201 199.599 C 549.324 195.198, 559.095 188.116, 564.440 181.306 L 568.766 175.794 568.249 167.514 C 567.866 161.368, 568.154 157.997, 569.366 154.438 C 570.265 151.801, 571 149.274, 571 148.822 C 571 147.364, 565.679 148.031, 558.500 150.388 M 586.500 149.662 C 583.590 150.444, 579.885 154.164, 580.230 155.956 C 580.471 157.209, 582.312 157.520, 590.014 157.606 C 610.437 157.833, 636.992 168.554, 648.921 181.388 C 651.911 184.605, 650.869 186.014, 647.210 183.703 C 625.647 170.088, 608.264 164.610, 588.500 165.201 L 578.500 165.500 578.644 168.714 C 579.290 183.196, 602.355 202.255, 630.978 211.959 L 637.456 214.155 639.270 211.915 C 642.024 208.514, 641.033 206.870, 635 204.826 C 620.152 199.798, 594.782 184.085, 592.684 178.618 C 591.735 176.146, 593.988 176.661, 599 180.062 C 611.361 188.448, 639.261 200, 647.154 200 C 652.329 200, 655.341 197.453, 654.592 193.710 C 653.951 190.505, 655.686 186.884, 659.244 184.004 C 663.457 180.592, 645.311 164.892, 628.628 157.514 C 616.737 152.255, 593.182 147.865, 586.500 149.662 M 492.200 208.200 C 490.616 209.784, 490.686 211.860, 492.501 217.002 C 493.885 220.926, 493.847 221.757, 492.001 227.733 C 489.646 235.355, 489.506 239.763, 491.532 242.441 C 493.489 245.028, 493.399 251.986, 491.371 254.880 C 489.440 257.638, 489.879 267.883, 492.131 272.598 C 495.064 278.738, 511.649 276.451, 518.402 268.976 C 525.846 260.737, 530 248.743, 530 235.490 C 530 226.506, 529.217 224.999, 524.550 225.001 L 521.500 225.003 521.407 235.251 C 521.302 246.761, 519.355 253.404, 513.917 260.798 C 510.806 265.029, 507.061 266.730, 508.520 263.250 C 512.969 252.635, 514.316 246.970, 514.405 238.500 C 514.550 224.746, 513.908 222.886, 507.562 218.673 C 504.595 216.702, 500.704 213.270, 498.916 211.045 C 495.497 206.791, 494.171 206.229, 492.200 208.200 M 653.942 210.458 C 647.241 214.137, 648.246 219.536, 655.431 218.458 L 660.103 217.757 659.802 213.637 C 659.463 209.012, 658.011 208.224, 653.942 210.458 M 646.275 231.654 C 609.364 244.724, 619.709 318.782, 661.270 339.001 C 669.477 342.994, 670.268 342.541, 665.652 336.495 C 655.150 322.741, 654.232 308.631, 663.167 298.307 C 667.509 293.291, 667.540 293.134, 665.420 287.047 C 664.179 283.482, 663.933 278.790, 664.185 263.547 L 664.500 244.500 658.898 244.518 C 640.712 244.577, 632.557 273.975, 642.505 303.610 C 646.478 315.445, 643.756 314.785, 637.925 302.500 C 623.998 273.158, 634.735 236.621, 656.793 238.298 C 663.066 238.775, 663.090 238.767, 664.422 235.638 C 666.797 230.065, 656.899 227.892, 646.275 231.654 M 510.500 285.554 C 508.055 286.376, 502.272 286.870, 495.625 286.826 L 484.749 286.754 484.304 293.440 C 484.017 297.752, 484.281 300.633, 485.047 301.557 C 485.701 302.344, 485.995 304.229, 485.701 305.744 C 484.680 311.005, 488.856 327.059, 492.375 331.405 L 494.500 334.030 501.987 332.452 C 506.105 331.584, 511.257 331.015, 513.435 331.187 C 517.321 331.494, 517.412 331.425, 518.258 327.500 C 519.322 322.567, 517.828 311.564, 514.870 302.553 C 511.441 292.108, 514.743 292.585, 520.161 303.318 C 523.582 310.096, 525.957 320.072, 525.983 327.771 C 525.998 332.379, 526.307 333.183, 528.436 334.153 C 539.405 339.151, 534.604 306.078, 521.923 289.282 C 517.685 283.669, 516.885 283.408, 510.500 285.554 M 501.447 343.403 C 494.382 345.616, 485.130 351.133, 479.643 356.405 C 473.025 362.764, 472.310 364.275, 472.972 370.500 L 473.505 375.500 476.502 372.084 C 485.772 361.521, 487.899 359.421, 491.946 356.838 C 499.795 351.827, 500.332 354.062, 493.059 361.469 C 485.376 369.292, 475.382 387.894, 477.706 390.048 C 481.052 393.150, 495 387.894, 495 383.531 C 495 377.292, 507.846 358, 512 358 C 516.166 358, 526.008 372.092, 528.486 381.606 C 530.386 388.903, 530.208 388.754, 538.449 389.921 C 548.545 391.351, 548.715 391.023, 543.518 380.179 C 539.477 371.745, 535.163 365.232, 529.657 359.250 C 525.091 354.289, 526.545 353.691, 533.087 357.840 C 539.824 362.113, 546.645 370.485, 551.316 380.217 C 555.902 389.772, 557.067 390.576, 559.440 385.819 C 561.969 380.750, 558.323 372.500, 548.157 360.284 C 536.160 345.869, 516.389 338.723, 501.447 343.403 M 507.050 373.188 C 499.636 386.050, 500.447 388.188, 512.591 387.791 L 521.500 387.500 521.226 384.099 C 521.075 382.228, 519.500 377.953, 517.726 374.599 C 513.352 366.329, 511.169 366.041, 507.050 373.188 M 487.342 400.611 C 472.380 402.922, 466.562 405.035, 466.183 408.296 L 465.865 411.022 474.183 410.435 C 489.467 409.357, 498.805 420.016, 492.033 430.810 C 485.805 440.738, 468.105 435.845, 472.819 425.498 C 474.794 421.163, 479.963 421.327, 478.296 425.672 C 477.538 427.646, 479.880 430, 482.599 430 C 488.412 430, 489.203 421.734, 483.778 417.684 C 474.785 410.969, 456.426 426.693, 460.574 437.556 C 462.996 443.896, 463.216 443.961, 475.406 441.907 C 481.405 440.897, 490.756 439.764, 496.187 439.390 C 507.648 438.601, 507.364 438.815, 505.380 432.421 C 502.408 422.843, 506.534 407, 512 407 C 517.466 407, 521.592 422.843, 518.620 432.421 C 516.637 438.811, 516.352 438.595, 527.714 439.305 C 533.096 439.642, 542.831 440.835, 549.346 441.958 C 563.154 444.337, 562.514 444.531, 564.087 437.501 C 566.872 425.056, 548.974 410.696, 539.750 417.975 C 536.629 420.438, 535.867 426.815, 538.440 428.950 C 540.993 431.069, 545.478 429.856, 545.651 427 C 545.735 425.625, 545.847 423.938, 545.901 423.250 C 546.189 419.602, 552 424.028, 552 427.894 C 552 436.334, 540.632 439.478, 534.020 432.866 C 528.675 427.521, 528.898 420.168, 534.578 414.489 C 539.387 409.680, 543.764 409.103, 556.609 411.585 C 559.773 412.196, 561.729 409.772, 560.127 407.223 C 556.213 400.995, 511.284 396.913, 487.342 400.611 M 666.625 400.641 C 658.341 402.182, 647.264 405.763, 646.386 407.184 C 643.623 411.656, 659.531 416.986, 675.668 416.996 C 683.736 417.001, 684.523 416.618, 687.018 411.464 C 691.536 402.129, 682.993 397.595, 666.625 400.641 M 350.863 404.041 C 349.413 405.671, 348.018 408.241, 347.762 409.752 C 347.507 411.263, 347.119 413.162, 346.899 413.971 C 346.444 415.648, 355.105 417.187, 357.268 415.813 C 357.946 415.383, 361.319 415.024, 364.765 415.015 C 370.463 415.001, 371.359 414.698, 374.673 411.661 C 379.297 407.423, 378.739 406.637, 368.908 403.531 C 358.152 400.133, 354.243 400.243, 350.863 404.041 M 387.241 415.325 C 378.997 419.904, 379.257 437.062, 387.967 463.133 C 395.107 484.506, 398.451 489.343, 402.850 484.660 L 405.048 482.320 402.108 470.910 C 399.300 460.012, 397.435 448.451, 394.942 426.500 C 393.516 413.943, 392.468 412.422, 387.241 415.325 M 631.219 415.250 C 630.654 415.938, 629.454 423.654, 628.551 432.399 C 626.701 450.319, 625.218 458.818, 621.511 472.745 L 618.946 482.382 621.723 484.655 C 625.944 488.110, 626.475 487.707, 630.802 477.750 C 641.089 454.082, 645.838 428.389, 641.483 419.967 C 639.172 415.499, 633.249 412.776, 631.219 415.250 M 489 450.423 C 468.655 453.038, 460.567 455.859, 459.356 460.763 C 458.984 462.268, 457.570 465.270, 456.212 467.432 C 451.687 474.644, 454.706 490.703, 460.386 489.629 C 462.099 489.305, 468.450 488.105, 474.500 486.963 C 497.291 482.661, 529.976 483.139, 555.765 488.151 C 567.839 490.498, 569.863 490.043, 569.968 484.961 C 569.986 484.115, 570.872 481.713, 571.937 479.623 C 581.377 461.107, 562.079 450.619, 516.500 449.493 C 505.612 449.224, 495.725 449.558, 489 450.423 M 507.114 460.750 C 503.644 463.631, 503.300 468.391, 506.343 471.434 C 511.640 476.731, 520.962 472.690, 519.609 465.684 C 518.853 461.772, 515.698 459, 512 459 C 510.472 459, 508.273 459.788, 507.114 460.750 M 484.655 464.829 C 482.504 467.206, 482.560 469.291, 484.829 471.345 C 488.544 474.707, 493 472.793, 493 467.835 C 493 463.344, 487.720 461.442, 484.655 464.829 M 532.655 464.829 C 529.348 468.482, 531.198 473, 536 473 C 540.880 473, 542.802 467.941, 539.171 464.655 C 536.794 462.504, 534.709 462.560, 532.655 464.829 M 464.200 469.200 C 462.467 470.933, 462.724 473.440, 464.829 475.345 C 468.099 478.305, 472 476.757, 472 472.500 C 472 471.345, 471.460 469.860, 470.800 469.200 C 470.140 468.540, 468.655 468, 467.500 468 C 466.345 468, 464.860 468.540, 464.200 469.200 M 553.200 469.200 C 549.922 472.478, 554.219 478.133, 558.504 476.180 C 562.826 474.211, 561.305 468, 556.500 468 C 555.345 468, 553.860 468.540, 553.200 469.200 M 330.810 471.524 C 329.741 472.593, 331.276 476.910, 333.451 478.954 C 336.073 481.417, 337.345 480.475, 338.313 475.356 C 338.824 472.653, 338.649 472.279, 337.067 472.693 C 336.054 472.958, 334.923 472.685, 334.554 472.087 C 333.851 470.949, 331.707 470.626, 330.810 471.524 M 685.469 474.702 C 686.470 480.056, 691.888 484.118, 696.750 483.159 C 697.438 483.023, 698 483.607, 698 484.456 C 698 485.505, 698.962 486, 701 486 C 704.817 486, 705.138 482.792, 701.556 480.445 C 699.837 479.319, 699.021 477.752, 698.806 475.171 L 698.500 471.500 691.630 471.202 L 684.759 470.903 685.469 474.702 M 666.811 474.750 C 665.986 475.712, 662.019 482.125, 657.993 489 C 649.613 503.313, 638.525 520.255, 632.872 527.381 C 628.666 532.682, 628.414 533.620, 630.161 537.453 C 631.742 540.924, 632.515 540.720, 638.396 535.278 C 652.719 522.025, 670.859 498.319, 674.437 488.179 C 677.657 479.052, 671.864 468.851, 666.811 474.750 M 351.213 476.273 C 344.464 483.458, 356.327 505.241, 380.338 529.750 C 391.576 541.221, 391.823 541.341, 394.371 536.609 L 396.197 533.218 390.349 525.827 C 383.522 517.201, 375.190 504.507, 364.863 487 C 356.890 473.484, 355.132 472.102, 351.213 476.273 M 407.901 494.106 C 403.722 498.580, 403.995 502.549, 408.910 508.767 C 419.087 521.642, 422.525 520.685, 421.343 505.305 C 420.326 492.066, 414.410 487.138, 407.901 494.106 M 606.637 494.175 C 601.536 499.294, 600.502 518, 605.319 518 C 607.075 518, 616.457 508.157, 618.412 504.263 C 622.583 495.957, 613.023 487.766, 606.637 494.175 M 491 495.068 C 481.412 496.127, 463.466 500.354, 459.274 502.541 C 457.748 503.337, 456.007 503.990, 455.405 503.994 C 450.866 504.019, 449.585 514.001, 453.507 518.788 C 453.637 518.947, 455.939 517.719, 458.622 516.059 C 469.235 509.493, 490.922 504.805, 493.619 508.493 C 495.994 511.742, 492.804 513.510, 482 514.930 C 465.954 517.038, 453.704 521.688, 452.832 526 C 451.590 532.133, 453.255 532.718, 464.710 530.174 C 493.048 523.880, 527.516 523.196, 551.500 528.451 C 558.100 529.897, 564.696 531.335, 566.157 531.646 C 569.815 532.426, 572.838 528.135, 571.186 524.509 C 569.775 521.412, 554.663 516.485, 541.096 514.698 C 531.410 513.422, 528.994 512.064, 530.309 508.636 C 531.756 504.866, 549.477 508.171, 562.821 514.699 C 573.082 519.719, 573.301 519.684, 575.150 512.745 C 576.798 506.561, 576.331 506.133, 563 501.628 C 544.028 495.216, 514.233 492.502, 491 495.068 M 507 504 C 502.567 508.433, 505.716 517, 511.777 517 C 517.847 517, 521.311 511.437, 518.558 506.113 C 516.182 501.518, 510.517 500.483, 507 504 M 340.023 535.977 C 336.090 539.910, 337.651 546.482, 344.222 553.652 C 354.750 565.140, 389.725 589.524, 392.879 587.575 C 395.459 585.980, 395.953 580.945, 393.712 579.078 C 381.376 568.804, 368.398 557.316, 358.258 547.695 C 343.569 533.757, 342.762 533.238, 340.023 535.977 M 678.385 536.210 C 676.798 537.425, 670.100 543.568, 663.500 549.861 C 656.900 556.154, 647.225 564.878, 642 569.247 C 636.775 573.617, 631.505 578.031, 630.288 579.056 C 628.047 580.945, 628.540 585.980, 631.123 587.576 C 634.950 589.941, 673.848 561.972, 682.213 550.839 C 686.611 544.986, 687.433 538.607, 684.171 535.655 C 681.858 533.562, 681.839 533.564, 678.385 536.210 M 490 536.504 C 471.957 538.509, 464.449 540.716, 458.131 545.871 L 453.762 549.436 454.250 556.253 C 454.856 564.725, 454.732 564.618, 461.723 562.664 C 476.244 558.605, 491.376 559.895, 505.463 566.393 L 512.500 569.639 519.529 566.314 C 532.326 560.259, 544.768 558.725, 557.500 561.634 C 570.011 564.492, 570.314 564.486, 572.071 561.326 C 575.897 554.442, 573.734 547.751, 566.656 544.569 C 547.969 536.170, 519.738 533.200, 490 536.504 M 319.250 537.155 C 316.913 537.685, 315.012 538.429, 315.027 538.809 C 315.068 539.851, 321.903 547, 322.858 547 C 324.919 547, 327.125 543.021, 326.820 539.852 C 326.458 536.077, 325.508 535.738, 319.250 537.155 M 697.589 536.744 C 694.334 539.999, 700.429 549, 705.888 549 C 711.481 549, 713.792 539.211, 708.500 537.934 C 703.348 536.691, 698.204 536.130, 697.589 536.744 M 404.537 540.959 C 398.684 547.427, 402.125 554.590, 414.169 561.009 C 422.692 565.552, 422.932 565.113, 419.863 550.618 C 417.944 541.551, 409.065 535.956, 404.537 540.959 M 609.150 542.006 C 606.577 543.870, 605 545.803, 605 547.092 C 605 548.236, 604.232 552.055, 603.293 555.579 C 600.926 564.461, 602.092 565.551, 609.611 561.489 C 619.402 556.199, 622 553.488, 622 548.562 C 622 539.601, 616.408 536.748, 609.150 542.006 M 487.223 545.557 C 482.808 548.649, 485.229 554.450, 490.671 553.822 C 494.860 553.339, 496.350 548.512, 493.119 545.895 C 490.287 543.602, 490.033 543.588, 487.223 545.557 M 506.655 545.829 C 502.653 550.251, 506.056 558, 512 558 C 513.667 558, 515.889 557.111, 517 556 C 521.474 551.526, 518.122 544, 511.655 544 C 509.684 544, 507.630 544.751, 506.655 545.829 M 531 546 C 527.622 549.378, 529.260 554, 533.835 554 C 538.868 554, 540.867 548.999, 537.171 545.655 C 534.781 543.492, 533.433 543.567, 531 546 M 466.243 548.157 C 463.379 551.021, 465.932 555.444, 470.093 554.827 C 473.129 554.376, 474.818 551.524, 473.394 549.250 C 472.049 547.102, 467.928 546.472, 466.243 548.157 M 551.032 548.940 C 549.386 552.016, 551.391 555.209, 554.716 554.810 C 558.065 554.408, 559.893 551.644, 558.394 549.250 C 556.750 546.624, 552.370 546.440, 551.032 548.940 M 468.031 572.330 C 460.982 574.175, 458.132 582, 464.508 582 C 470.362 582, 477.691 587.622, 480.452 594.232 C 484.365 603.597, 481.452 612.614, 470.179 626.031 C 463.919 633.480, 460.913 638.208, 457.800 645.500 C 456.663 648.162, 455.087 658.302, 455.663 659.250 C 455.913 659.662, 457.779 658.672, 459.809 657.050 C 463.373 654.201, 471.502 651.588, 474.191 652.425 C 474.911 652.650, 476.729 653.102, 478.232 653.431 C 483.797 654.649, 491.934 664.123, 490.539 667.760 C 490.049 669.035, 489.216 668.642, 486.216 665.719 C 472.508 652.361, 452.622 663.579, 460.977 679.956 C 465.973 689.749, 473.406 690.895, 485.581 683.750 C 494.775 678.355, 500.627 677.076, 507.416 678.976 C 510.965 679.970, 512.843 679.969, 516.744 678.969 C 523.840 677.150, 529.475 678.370, 538.590 683.699 C 552.611 691.896, 565 687.246, 565 673.786 C 565 659.667, 550.282 654.838, 538.596 665.124 C 533.557 669.560, 532.542 669.674, 533.541 665.693 C 535.608 657.456, 547.064 650.881, 555.892 652.864 C 559.557 653.688, 561.429 654.668, 566.592 658.465 C 574.735 664.452, 564.538 638.661, 553.530 625.424 C 537.435 606.072, 538.608 587.653, 556.233 582.952 C 566.038 580.337, 566.862 575.625, 558 572.847 C 546.346 569.193, 535.349 570.493, 520.728 577.254 L 511.956 581.311 503.228 577.221 C 489.529 570.801, 479.303 569.381, 468.031 572.330 M 488.567 582.926 C 485.029 586.835, 489.522 592.424, 493.796 589.430 C 496.532 587.514, 496.681 583.435, 494.066 582.035 C 491.369 580.592, 490.561 580.722, 488.567 582.926 M 529.655 582.829 C 526.695 586.099, 528.243 590, 532.500 590 C 536.893 590, 538.813 584.040, 535.066 582.035 C 532.388 580.602, 531.560 580.724, 529.655 582.829 M 406.035 584.934 C 403.926 588.874, 404.765 595.670, 407.638 597.930 C 410.757 600.383, 423.049 604.384, 424.051 603.272 C 425.926 601.189, 425.840 591.066, 423.926 588.633 C 420.168 583.856, 407.963 581.333, 406.035 584.934 M 606.566 584.558 C 599.922 587.032, 599 588.437, 599 596.096 C 599 604.135, 599.174 604.301, 605.792 602.555 C 618.128 599.301, 621.404 595.457, 618.755 587.343 C 617.286 582.845, 613.494 581.979, 606.566 584.558 M 460.481 590.117 C 457.433 591.600, 452.382 601.793, 453.673 603.856 C 456.410 608.229, 463 605.814, 463 600.437 C 463 596.331, 464.519 595.254, 467.063 597.557 C 473.750 603.609, 466.190 613.753, 455.741 612.749 C 450.215 612.218, 450.357 611.787, 452.857 621.500 C 453.424 623.700, 454.146 626.737, 454.462 628.250 C 454.960 630.626, 457.986 632.333, 458.008 630.250 C 458.012 629.837, 460.941 626.212, 464.516 622.194 C 472.540 613.175, 475.231 608.096, 475.231 601.964 C 475.231 592.698, 467.666 586.623, 460.481 590.117 M 555.315 590.440 C 544.981 595.012, 546.619 606.711, 559.805 622.500 C 568.834 633.311, 569.660 633.684, 570.472 627.310 C 570.808 624.664, 571.315 621.375, 571.597 620 C 572.926 613.527, 572.933 613.539, 566.650 612.980 C 557.125 612.133, 551.871 604.086, 556.838 597.952 C 559.166 595.077, 561 596.138, 561 600.359 C 561 604.277, 562.527 606, 566 606 C 570.860 606, 572.793 600.901, 569.250 597.426 C 568.288 596.482, 566.824 594.313, 565.997 592.605 C 564.237 588.969, 560.398 588.190, 555.315 590.440 M 509.715 591.762 C 501.296 601.065, 501.763 623.749, 510.523 631.019 C 513.614 633.585, 519.480 623.623, 520.595 613.913 C 521.942 602.193, 514.319 586.675, 509.715 591.762 M 344.667 594.667 C 337.353 601.981, 357.796 618.898, 387.454 630.074 C 399.558 634.636, 401.039 634.687, 402.136 630.586 C 403.178 626.688, 403.650 627.123, 389.730 619.171 C 382.987 615.318, 370.968 608.079, 363.022 603.083 C 349.400 594.519, 346.256 593.077, 344.667 594.667 M 662 602.559 C 654.575 607.256, 642.538 614.503, 635.250 618.664 C 622.312 626.052, 622 626.310, 622 629.646 C 622 634.504, 623.713 634.698, 634.275 631.030 C 661.977 621.410, 683.986 604.849, 680.178 596.490 C 678.452 592.704, 676.602 593.321, 662 602.559 M 691.724 601.663 C 691.296 603.900, 692.207 605.318, 697.412 610.523 C 706.673 619.784, 709.237 620.726, 710.314 615.262 C 711.534 609.075, 711.511 608.498, 710.055 608.815 C 707.622 609.345, 704.149 606.867, 703.098 603.851 C 701.310 598.722, 692.606 597.047, 691.724 601.663 M 484.481 622.030 C 482.100 625.883, 487.767 639.832, 493.901 645.218 C 498.181 648.976, 507.858 653.552, 509.010 652.363 C 510.178 651.157, 508.225 641.361, 505.912 636.827 C 501.683 628.537, 486.807 618.267, 484.481 622.030 M 531.977 623.438 C 522.395 628.459, 515 639.672, 515 649.182 C 515 659.016, 534.901 644.028, 538.561 631.437 C 541.457 621.478, 539.727 619.376, 531.977 623.438 M 414.655 627.829 C 410.868 632.014, 413.692 641.288, 419.082 642.366 C 423.722 643.294, 433.796 643.139, 434.419 642.130 C 435.238 640.806, 430.971 628.671, 429.187 627.250 C 426.669 625.244, 416.632 625.644, 414.655 627.829 M 595.318 627.490 C 593.139 629.016, 588.613 640.565, 589.581 642.130 C 591.111 644.606, 605.101 643.053, 608.077 640.077 C 616.394 631.760, 605.112 620.630, 595.318 627.490 M 355.727 651.607 C 355.413 651.921, 357.380 655.583, 360.097 659.746 C 362.815 663.909, 365.976 670.402, 367.122 674.175 C 370.930 686.712, 392.129 698.781, 411.267 699.306 L 418.349 699.500 419.735 692.049 C 421.336 683.435, 422.715 685.434, 407.624 674.483 C 392.011 663.154, 358.813 648.520, 355.727 651.607 M 658 653.559 C 637.279 659.539, 602.130 681.409, 603.543 687.443 C 603.937 689.124, 604.539 692.525, 604.880 695 C 605.497 699.475, 605.523 699.502, 609.795 699.810 C 622.981 700.760, 656 685.498, 656 678.453 C 656 675.516, 660.250 665.939, 664.451 659.409 C 670.501 650.006, 670.455 649.965, 658 653.559 M 344.407 661.750 C 344.776 663.813, 345.345 667.975, 345.674 671 C 346.410 677.782, 347.321 679, 351.654 679 C 356.295 679, 356.691 677.189, 353.552 670.332 C 348.570 659.451, 343.077 654.296, 344.407 661.750 M 675.033 662.452 C 667.185 673.859, 666.590 679.289, 673.241 678.808 L 677.500 678.500 678.136 672.500 C 678.486 669.200, 679.106 664.587, 679.514 662.250 C 680.490 656.656, 678.974 656.724, 675.033 662.452 M 508.565 662.928 C 504.905 666.972, 509.971 672.559, 514.567 669.548 C 517.198 667.824, 517.590 665.970, 515.965 662.934 C 514.636 660.452, 510.808 660.449, 508.565 662.928 M 469 669 C 465.248 672.752, 467.752 678, 473.294 678 C 477.976 678, 479.731 671.326, 475.777 668.557 C 472.840 666.499, 471.407 666.593, 469 669 M 548 669 C 544.168 672.832, 546.178 678, 551.500 678 C 556.930 678, 559.146 671.616, 554.777 668.557 C 551.840 666.499, 550.407 666.593, 548 669 M 373 669.212 C 373 672.692, 390.424 685.642, 399.231 688.706 C 405.219 690.790, 412.500 690.952, 412.500 689.002 C 412.500 687.411, 411.004 686.558, 395.956 679.572 C 390.706 677.135, 384.023 673.535, 381.105 671.571 C 375.618 667.878, 373 667.116, 373 669.212 M 642 672.210 C 638.425 674.502, 630.550 678.582, 624.500 681.276 C 612.698 686.531, 610.338 688.119, 611.510 690.016 C 613.699 693.559, 630.501 687.579, 640.952 679.537 C 653.940 669.543, 654.726 664.050, 642 672.210 M 689.683 671.250 C 687.188 681.756, 688.485 696.759, 692.233 700.748 C 695.060 703.758, 696 703.586, 696 700.059 C 696 698.441, 696.432 696.851, 696.960 696.525 C 700.529 694.319, 701.297 685.415, 698.478 678.916 C 694.628 670.038, 690.769 666.675, 689.683 671.250 M 331.500 675 C 331.160 675.550, 330.009 676, 328.941 676 C 327.873 676, 326.944 676.675, 326.875 677.500 C 326.678 679.864, 326.522 680.417, 325.676 681.750 C 325.179 682.532, 325.405 683, 326.280 683 C 327.934 683, 330 687.124, 330 690.425 C 330 694.591, 332.639 695.600, 334.438 692.120 C 337.845 685.532, 335.052 669.253, 331.500 675 M 442 677.594 C 434.338 680.913, 430 688.552, 430 698.727 C 430 709.613, 438.862 710.336, 454.750 700.746 C 461.111 696.907, 461.142 696.550, 455.609 690.776 C 453.195 688.255, 450.661 684.462, 449.979 682.347 C 447.818 675.643, 447.266 675.313, 442 677.594 M 574.602 681.366 C 573.266 684.386, 570.271 688.921, 567.945 691.443 C 563.805 695.936, 563.755 696.072, 565.550 698.055 C 567.942 700.698, 580.458 706.681, 585.250 707.472 C 597.733 709.531, 596.783 685.022, 584.131 678.591 C 577.673 675.308, 577.223 675.439, 574.602 681.366 M 497.250 689.144 C 493.111 690.307, 493.164 691.327, 497.564 695.191 C 502.223 699.281, 505.806 706.498, 506.621 713.434 C 507.430 720.312, 505.903 720.830, 503.152 714.611 L 501.211 710.222 496.563 710.746 C 489.966 711.489, 486.722 708.470, 487.180 702.010 L 487.500 697.500 484.113 697.662 C 479.238 697.896, 478.689 699.659, 481.744 705.272 C 494.469 728.651, 530.527 728.217, 543.092 704.533 C 545.834 699.364, 545.150 697.910, 539.859 697.659 L 536.500 697.500 536.833 702.167 C 537.315 708.925, 534.617 711.470, 527.822 710.665 L 522.894 710.082 520.982 714.541 C 518.300 720.800, 516.558 720.412, 517.427 713.750 C 518.380 706.435, 522.103 698.801, 526.382 695.387 C 533.209 689.939, 526.761 686.153, 517.125 689.951 C 512.685 691.701, 511.700 691.778, 508.795 690.601 C 503.655 688.519, 500.768 688.154, 497.250 689.144 M 329.336 723.595 C 329.649 724.643, 330.180 726.658, 330.517 728.074 C 331.025 730.212, 332.276 731.017, 337.900 732.829 C 350.488 736.883, 358.025 743.951, 362.089 755.512 C 365.922 766.417, 363.849 769.606, 359.075 760.149 C 355.262 752.594, 351.790 748.531, 346.645 745.600 C 342.544 743.264, 335.067 741.486, 334.928 742.813 C 334.888 743.191, 334.665 748, 334.431 753.500 C 333.837 767.477, 333.395 770.819, 331.899 772.622 C 330.807 773.938, 330.879 774.353, 332.341 775.171 C 334.358 776.300, 333.766 779.739, 331.208 781.750 C 329.793 782.862, 329.840 783, 331.638 783 C 333.034 783, 334.250 784.287, 335.579 787.172 C 336.635 789.466, 338.175 791.684, 339 792.101 C 349.080 797.193, 360.699 800.249, 376.500 801.966 C 390.863 803.526, 394 804.071, 394 805.003 C 394 808.032, 364.005 806.756, 349 803.088 C 344.875 802.079, 341.199 801.426, 340.830 801.637 C 339.578 802.351, 335.150 810.975, 335.827 811.381 C 339.461 813.565, 347.822 814.310, 376 814.962 C 412.830 815.814, 416.567 816.445, 432.698 824.531 C 444.915 830.655, 444.884 830.654, 441.999 824.997 C 436.994 815.187, 426.142 806.725, 406.789 797.541 C 384.446 786.939, 382.182 784.272, 375.347 760.500 C 369.964 741.780, 363.426 732.791, 350.569 726.437 C 341.666 722.036, 328.337 720.253, 329.336 723.595 M 480.889 722.750 C 480.144 727.801, 485.651 738.952, 488.134 737.417 C 490.724 735.816, 489.004 727.240, 485.567 724.619 C 481.963 721.870, 481.072 721.514, 480.889 722.750 M 538.713 724.549 C 534.982 727.085, 533.106 735.711, 535.909 737.444 C 538.450 739.014, 545.500 725.100, 543.286 722.886 C 542.806 722.406, 540.785 723.141, 538.713 724.549 M 681.746 723.064 C 665.200 727.059, 654.234 740.074, 647.954 763.170 C 642.530 783.118, 639.150 787.028, 619 796.667 C 605.689 803.034, 592.558 811.461, 588.181 816.447 C 581.699 823.829, 577.931 832.746, 582.798 829.184 C 597.173 818.663, 609.690 815.932, 647.500 815.067 C 683.388 814.245, 692.985 812.888, 693.015 808.628 C 693.024 807.458, 693.442 805.849, 693.946 805.054 C 694.810 803.687, 694.490 802.618, 692.195 799.203 C 691.500 798.168, 689.824 798.406, 683.912 800.377 C 668.627 805.473, 633.653 808.986, 630.417 805.750 C 629.114 804.448, 630.142 804.215, 646.500 802.108 C 669.551 799.138, 688.044 793.099, 694.813 786.329 C 695.545 785.598, 696.561 785, 697.071 785 C 698.644 785, 698.098 778.585, 696.307 776.029 C 694.922 774.050, 694.584 770.897, 694.447 758.644 C 694.255 741.610, 693.688 740.306, 687 741.528 C 677.859 743.199, 670.053 749.898, 665.196 760.240 C 661.896 767.265, 659.419 768.048, 660.419 761.750 C 662.905 746.090, 675.230 734.205, 690.810 732.442 L 697.108 731.729 696.725 727.115 L 696.342 722.500 690.921 722.329 C 687.940 722.235, 683.811 722.566, 681.746 723.064 M 677.404 829.750 C 668.488 840.674, 656.699 850.567, 646.290 855.859 C 636.858 860.655, 637.937 858.064, 649.151 848.987 C 657.963 841.854, 669 829.871, 669 827.436 C 669 826.619, 666.638 826.324, 661.258 826.467 L 653.516 826.673 649.776 832.086 C 638.544 848.346, 622.129 862.831, 605.250 871.376 C 595.524 876.300, 599.658 877.334, 615.843 874.027 C 644.532 868.165, 679 849.040, 679 838.983 C 679 838.369, 680.125 836.392, 681.500 834.589 C 682.875 832.786, 684 830.593, 684 829.715 C 684 828.837, 684.450 827.840, 685 827.500 C 686.802 826.386, 686.048 825, 683.641 825 C 682.037 825, 680.040 826.521, 677.404 829.750 M 355.494 826.839 C 353.954 828.379, 367.228 842.820, 378.494 851.862 C 390.156 861.221, 381.344 859.325, 367.500 849.497 C 364.200 847.154, 360.643 844.284, 359.595 843.119 C 355.641 838.722, 348.298 841.950, 350.956 846.917 C 355.253 854.946, 389.782 870.761, 410.926 874.385 C 425.849 876.942, 428.063 876.090, 418.750 871.376 C 401.086 862.433, 379.637 842.422, 371.419 827.216 C 371.164 826.744, 355.950 826.383, 355.494 826.839" fill="currentColor" fill-rule="evenodd" />
</svg>
